<svg width="26" height="26" viewBox="0 0 26 26" fill="none" xmlns="http://www.w3.org/2000/svg">
<g clip-path="url(#clip0_469_10431)">
<path d="M24.0283 17.1011C24.1299 16.5503 24.1299 15.9878 24.0283 15.437L25.0361 14.855C25.1533 14.7886 25.2041 14.6519 25.165 14.5229C24.9033 13.6792 24.4541 12.9136 23.8682 12.2808C23.7783 12.1831 23.6338 12.1597 23.5166 12.2261L22.5088 12.8081C22.083 12.4448 21.5947 12.1636 21.0674 11.9761V10.812C21.0674 10.6792 20.9736 10.562 20.8447 10.5347C19.9736 10.3394 19.0869 10.3472 18.2588 10.5347C18.1299 10.562 18.0361 10.6792 18.0361 10.812V11.9761C17.5088 12.1636 17.0205 12.4448 16.5947 12.8081L15.5869 12.2261C15.4736 12.1597 15.3252 12.1831 15.2354 12.2808C14.6494 12.9136 14.2002 13.6792 13.9385 14.5229C13.8994 14.6519 13.9541 14.7886 14.0674 14.855L15.0752 15.437C14.9736 15.9878 14.9736 16.5503 15.0752 17.1011L14.0674 17.6831C13.9502 17.7495 13.8994 17.8862 13.9385 18.0151C14.2002 18.8589 14.6494 19.6206 15.2354 20.2573C15.3252 20.355 15.4697 20.3784 15.5869 20.312L16.5947 19.73C17.0205 20.0933 17.5088 20.3745 18.0361 20.562V21.7261C18.0361 21.8589 18.1299 21.9761 18.2588 22.0034C19.1299 22.1987 20.0166 22.1909 20.8447 22.0034C20.9736 21.9761 21.0674 21.8589 21.0674 21.7261V20.562C21.5947 20.3745 22.083 20.0933 22.5088 19.73L23.5166 20.312C23.6299 20.3784 23.7783 20.355 23.8682 20.2573C24.4541 19.6245 24.9033 18.8589 25.165 18.0151C25.2041 17.8862 25.1494 17.7495 25.0361 17.6831L24.0283 17.1011ZM19.5557 18.1636C18.5088 18.1636 17.6611 17.312 17.6611 16.269C17.6611 15.2261 18.5127 14.3745 19.5557 14.3745C20.5986 14.3745 21.4502 15.2261 21.4502 16.269C21.4502 17.312 20.6025 18.1636 19.5557 18.1636ZM8.93066 12.519C11.6924 12.519 13.9307 10.2808 13.9307 7.51904C13.9307 4.75732 11.6924 2.51904 8.93066 2.51904C6.16895 2.51904 3.93066 4.75732 3.93066 7.51904C3.93066 10.2808 6.16895 12.519 8.93066 12.519ZM16.79 21.3667C16.7002 21.3198 16.6104 21.2651 16.5244 21.2144L16.2158 21.394C15.9814 21.5269 15.7158 21.6011 15.4502 21.6011C15.0244 21.6011 14.6143 21.4214 14.3213 21.1089C13.6064 20.3354 13.0596 19.394 12.751 18.3901C12.5361 17.6987 12.8252 16.9683 13.4502 16.605L13.7588 16.4253C13.7549 16.3237 13.7549 16.2222 13.7588 16.1206L13.4502 15.9409C12.8252 15.5815 12.5361 14.8472 12.751 14.1558C12.7861 14.0425 12.8369 13.9292 12.876 13.8159C12.7275 13.8042 12.583 13.769 12.4307 13.769H11.7783C10.9111 14.1675 9.94629 14.394 8.93066 14.394C7.91504 14.394 6.9541 14.1675 6.08301 13.769H5.43066C2.53223 13.769 0.180664 16.1206 0.180664 19.019V20.644C0.180664 21.6792 1.02051 22.519 2.05566 22.519H15.8057C16.2002 22.519 16.5674 22.394 16.8682 22.187C16.8213 22.0386 16.79 21.8862 16.79 21.7261V21.3667Z" fill="white"/>
</g>
<defs>
<clipPath id="clip0_469_10431">
<rect width="25" height="25" fill="white" transform="translate(0.180664 0.019043)"/>
</clipPath>
</defs>
</svg>
