<?xml version="1.0" encoding="UTF-8"?>
<svg id="Layer_2" data-name="Layer 2" xmlns="http://www.w3.org/2000/svg" viewBox="0 0 109.39 29.19">
  <defs>
    <style>
      .cls-1 {
        fill: #993520;
      }
    </style>
  </defs>
  <g id="pc_design">
    <path class="cls-1" d="M39.65,18.73c-.52-.04-.99-.12-1.47-.12-1.31,0-4.33,.4-5.65,.68-7.83,1.67-15.63,3.42-23.42,5.09-1.35,.32-2.7,.56-4.1,.56-.52,0-1.07-.04-1.63-.12-2.58-.44-3.94-2.54-3.18-5.09,.6-1.95,1.87-3.5,3.26-4.97C9.51,8.43,23.75,.16,32.1,.16c1.91,0,3.5,.32,5.09,1.35,.76,.52,1.11,1.31,.88,2.27-.04,.12-.2,.24-.32,.36-.08-.16-.28-.32-.28-.44,.28-1.47-.76-1.79-1.79-2.11-.95-.28-1.91-.4-2.82-.4C24.31,1.19,10.59,9.62,4.9,15.39c-1.07,1.15-2.03,2.47-2.9,3.74-.44,.64-.64,1.43-.83,2.19-.28,1.15,.2,1.91,1.35,2.11,.72,.12,1.51,.2,2.23,.2,.48,0,.91-.04,1.31-.12,3.42-.64,6.8-1.47,10.18-2.15,6.24-1.27,12.45-2.47,18.69-3.62,.56-.12,1.11-.16,1.67-.16,.68,0,1.31,.04,1.99,.08,.56,0,1.03,.32,1.07,1.07Zm12.4-.76c-.12,.16-.2,.36-.36,.44-2.27,1.15-4.85,1.55-7.36,1.55-.24,0-.52-.04-.76-.08-.24-.08-.44-.12-.6-.12-.56,0-.95,.28-1.35,.8-.56,.6-1.23,.91-1.83,.91-.32,0-.64-.08-.91-.28-.91-.64-1.07-1.63-.48-2.9,.08-.2,.16-.4,.28-.6,.44-.52,.64-1.07,.68-1.75,0-1.27,1.07-2.39,1.99-2.35,1.15,.04,2.43,1.51,2.27,2.74-.12,.87-.44,1.75-.68,2.7,.56,.04,1.11,.08,1.71,.08,2.11,0,4.18-.4,6.2-1.23,.16-.08,.36-.24,.52-.24,.24,.04,.48,.2,.68,.32Zm-10.62,1.39c-.6-.56-1.07-.95-1.71-1.51-.24,.76-.52,1.43-.68,2.15-.08,.4,.08,.64,.36,.64,.12,0,.2-.04,.32-.08,.6-.32,1.11-.8,1.71-1.19Zm1.19-4.14c-.2-.48-.48-.72-.84-.72-.24,0-.48,.16-.76,.44-.2,.24-.36,.52-.52,.8,.24,.2-.08,1.47,0,1.63,.24,.44,.68,.76,1.03,1.15,.04,.04,.24-.04,.32-.12,.48-.4,.99-2.58,.76-3.18Zm12.72,5.09c-.28,.08-.56,.16-.91,.28,.12,.12,.12,.2,.2,.24,1.55,.99,1.59,3.06,.91,4.33-.8,1.47-2.9,4.02-4.81,4.02-.91,0-1.55-.72-1.51-1.91,.04-1.75,.28-3.62,.76-5.33-.12-.04-.2-.08-.24-.16-.24-.24-.56-.44-.64-.72-.04-.16,.32-.52,.6-.64,.64-.24,.88-.72,1.07-1.31,1.67-6.12,4.49-11.77,7.56-17.3,.32-.48,.68-.99,1.07-1.39,.32-.32,.68-.44,.95-.44,.52,0,.91,.36,1.03,1.07,.12,.72,.08,1.55-.08,2.23-1.39,5.45-3.78,10.34-7.95,14.24-1.27,1.15-1.43,1.43-1.51,2.54,.32,0,.64,0,.91-.08,3.5-.8,7-1.59,10.54-2.39,.24-.04,.56,.2,.83,.32-.2,.16-.36,.44-.6,.48-2.74,.68-5.49,1.27-8.19,1.91Zm-2.31,.8c-.28,0-.6,.04-.88,.08-.6,.16-.91,.44-1.03,1.07-.16,.91-.4,1.79-.56,2.7-.16,1.03-.2,2.07-.32,3.3,2.27-.95,3.7-2.39,4.49-4.45,.28-.72,.36-1.55-.24-2.15-.44-.44-.95-.56-1.47-.56Zm-.08-4.41c4.1-4.49,6.8-9.58,7.67-15.55-1.55,.84-7.75,13.52-7.67,15.55Zm14.47,3.62c-.28,.08-.56,.16-.91,.28,.12,.12,.12,.2,.2,.24,1.55,.99,1.59,3.06,.91,4.33-.8,1.47-2.9,4.02-4.81,4.02-.91,0-1.55-.72-1.51-1.91,.04-1.75,.28-3.62,.76-5.33-.12-.04-.2-.08-.24-.16-.24-.24-.56-.44-.64-.72-.04-.16,.32-.52,.6-.64,.64-.24,.88-.72,1.07-1.31,1.67-6.12,4.49-11.77,7.56-17.3,.32-.48,.68-.99,1.07-1.39,.32-.32,.68-.44,.95-.44,.52,0,.91,.36,1.03,1.07,.12,.72,.08,1.55-.08,2.23-1.39,5.45-3.78,10.34-7.95,14.24-1.27,1.15-1.43,1.43-1.51,2.54,.32,0,.64,0,.91-.08,3.5-.8,7-1.59,10.54-2.39,.24-.04,.56,.2,.83,.32-.2,.16-.36,.44-.6,.48-2.74,.68-5.49,1.27-8.19,1.91Zm-2.31,.8c-.28,0-.6,.04-.88,.08-.6,.16-.91,.44-1.03,1.07-.16,.91-.4,1.79-.56,2.7-.16,1.03-.2,2.07-.32,3.3,2.27-.95,3.7-2.39,4.49-4.45,.28-.72,.36-1.55-.24-2.15-.44-.44-.95-.56-1.47-.56Zm-.08-4.41c4.1-4.49,6.8-9.58,7.67-15.55-1.55,.84-7.75,13.52-7.67,15.55Zm27.75,1.19c-.12,.2-.24,.52-.44,.6-1.67,.56-3.3,1.19-5.01,1.59-2.23,.52-6.2,1.67-9.23,1.67-.76,0-1.47-.08-2.07-.24-1.43-.36-1.95-1.47-1.79-2.94,.04-.6,.44-.84,.72-1.15,.95-1.19,2.94-2.74,4.53-2.74,.48,0,.88,.28,1.19,.76,.36,.56,.12,1.07-.24,1.47-1.27,1.27-2.62,2.11-4.49,2.11-.4,0-.68,0-.8,.48-.08,.48,0,.83,.44,.95,.8,.24,1.67,.32,2.58,.32,2.7,0,5.65-.87,7.63-1.31,2.07-.52,4.1-1.23,6.16-1.83,.24-.04,.56,.16,.8,.28Zm-16.7,.28c1.59-.28,2.82-1.07,3.94-2.43-1.31,0-3.38,1.19-3.94,2.43Zm33.28-.28c-.12,.2-.24,.52-.44,.6-1.67,.56-3.3,1.19-5.01,1.59-2.23,.52-6.2,1.67-9.23,1.67-.76,0-1.47-.08-2.07-.24-1.43-.36-1.95-1.47-1.79-2.94,.04-.6,.44-.84,.72-1.15,.95-1.19,2.94-2.74,4.53-2.74,.48,0,.88,.28,1.19,.76,.36,.56,.12,1.07-.24,1.47-1.27,1.27-2.62,2.11-4.49,2.11-.4,0-.68,0-.8,.48-.08,.48,0,.83,.44,.95,.8,.24,1.67,.32,2.58,.32,2.7,0,5.65-.87,7.63-1.31,2.07-.52,4.1-1.23,6.16-1.83,.24-.04,.56,.16,.8,.28Zm-16.7,.28c1.59-.28,2.82-1.07,3.94-2.43-1.31,0-3.38,1.19-3.94,2.43Z"/>
  </g>
</svg>