<?xml version="1.0" encoding="UTF-8"?>
<svg id="Layer_2" data-name="Layer 2" xmlns="http://www.w3.org/2000/svg" viewBox="0 0 24.09 24">
  <defs>
    <style>
      .cls-1 {
        fill: #F9B200;
      }
    </style>
  </defs>
  <g id="pc_design">
    <path class="cls-1" d="M24.09,12.04C24.09,5.39,18.7,0,12.04,0S0,5.39,0,12.04c0,5.65,3.89,10.39,9.14,11.69V15.72h-2.48v-3.68h2.48v-1.59c0-4.1,1.85-6,5.88-6,.76,0,2.08,.15,2.62,.3v3.33c-.28-.03-.78-.05-1.39-.05-1.98,0-2.74,.75-2.74,2.69v1.31h3.93l-.68,3.68h-3.26v8.28c5.97-.72,10.59-5.8,10.59-11.96h0Z"/>
  </g>
</svg>