<?xml version="1.0" encoding="UTF-8"?>
<svg id="Layer_2" data-name="Layer 2" xmlns="http://www.w3.org/2000/svg" viewBox="0 0 31.69 31.69">
  <defs>
    <style>
      .cls-1 {
        fill: #231f20;
      }
    </style>
  </defs>
  <g id="tab_menu">
    <path class="cls-1" d="M30.99,27.62c.93,.93,.93,2.44,0,3.37-.46,.46-1.08,.7-1.68,.7s-1.22-.24-1.69-.7l-11.77-11.77L4.07,30.99c-.93,.93-2.44,.93-3.37,0-.47-.46-.7-1.08-.7-1.68s.23-1.22,.7-1.69L12.48,15.85,.7,4.07C-.23,3.14-.23,1.63,.7,.7c.47-.47,1.07-.7,1.69-.7s1.22,.23,1.68,.7L15.85,12.48,27.62,.7c.93-.93,2.44-.93,3.37,0,.46,.47,.7,1.07,.7,1.69s-.24,1.22-.7,1.68l-11.77,11.78,11.77,11.77Z"/>
  </g>
</svg>