<?xml version="1.0" encoding="UTF-8"?>
<svg id="Layer_2" data-name="Layer 2" xmlns="http://www.w3.org/2000/svg" viewBox="0 0 37.75 40.89">
  <defs>
    <style>
      .cls-1 {
        fill: #fff;
      }
    </style>
  </defs>
  <g id="pc_design">
    <path class="cls-1" d="M21.1,.92c-1.23-1.23-3.22-1.23-4.45,0L.92,16.65c-1.23,1.23-1.23,3.22,0,4.45,1.23,1.23,3.22,1.23,4.45,0L18.88,7.59l13.5,13.49c1.23,1.23,3.22,1.23,4.45,0s1.23-3.22,0-4.45L21.11,.91h0Zm15.72,34.6l-15.72-15.72c-1.23-1.23-3.22-1.23-4.45,0L.92,35.51c-1.23,1.23-1.23,3.22,0,4.45,1.23,1.23,3.22,1.23,4.45,0l13.5-13.5,13.5,13.49c1.23,1.23,3.22,1.23,4.45,0s1.23-3.22,0-4.45h0Z"/>
  </g>
</svg>