<?xml version="1.0" encoding="UTF-8"?>
<svg id="Layer_2" data-name="Layer 2" xmlns="http://www.w3.org/2000/svg" viewBox="0 0 24.01 24">
  <defs>
    <style>
      .cls-1 {
        fill: #fff;
      }
    </style>
  </defs>
  <g id="pc_design">
    <path class="cls-1" d="M12.01,5.85c-3.41,0-6.15,2.75-6.15,6.15s2.75,6.15,6.15,6.15,6.15-2.75,6.15-6.15-2.75-6.15-6.15-6.15Zm0,10.15c-2.2,0-4-1.79-4-4s1.79-4,4-4,4,1.79,4,4-1.8,4-4,4h0Zm7.84-10.41c0,.8-.64,1.44-1.44,1.44s-1.44-.64-1.44-1.44,.64-1.44,1.44-1.44,1.44,.64,1.44,1.44Zm4.08,1.46c-.09-1.92-.53-3.63-1.94-5.03-1.4-1.4-3.11-1.84-5.03-1.94C14.97-.03,9.03-.03,7.05,.08c-1.92,.09-3.62,.53-5.03,1.93C.61,3.42,.18,5.12,.08,7.05-.03,9.03-.03,14.97,.08,16.95c.09,1.92,.53,3.63,1.94,5.03,1.41,1.4,3.11,1.84,5.03,1.94,1.98,.11,7.92,.11,9.9,0,1.92-.09,3.63-.53,5.03-1.94,1.4-1.4,1.84-3.11,1.94-5.03,.11-1.98,.11-7.92,0-9.9h0Zm-2.56,12.02c-.42,1.05-1.23,1.86-2.28,2.28-1.58,.63-5.33,.48-7.07,.48s-5.5,.14-7.07-.48c-1.05-.42-1.86-1.23-2.28-2.28-.63-1.58-.48-5.33-.48-7.07s-.14-5.5,.48-7.07c.42-1.05,1.23-1.86,2.28-2.28,1.58-.63,5.33-.48,7.07-.48s5.5-.14,7.07,.48c1.05,.42,1.86,1.23,2.28,2.28,.63,1.58,.48,5.33,.48,7.07s.14,5.5-.48,7.07Z"/>
  </g>
</svg>