<svg width="260" height="215" viewBox="0 0 260 215" fill="none" xmlns="http://www.w3.org/2000/svg">
<path d="M132.8 214.03C191.469 214.03 239.03 166.469 239.03 107.8C239.03 49.1309 191.469 1.57007 132.8 1.57007C74.1306 1.57007 26.5698 49.1309 26.5698 107.8C26.5698 166.469 74.1306 214.03 132.8 214.03Z" fill="black"/>
<path d="M132.8 214.73C73.8399 214.73 25.8599 166.76 25.8599 107.79C25.8599 48.8201 73.8299 0.860107 132.8 0.860107C191.77 0.860107 239.74 48.8301 239.74 107.8C239.74 166.77 191.77 214.74 132.8 214.74V214.73ZM132.8 2.28011C74.6199 2.28011 27.2799 49.6201 27.2799 107.8C27.2799 165.98 74.6199 213.32 132.8 213.32C190.98 213.32 238.32 165.98 238.32 107.8C238.32 49.6201 190.98 2.28011 132.8 2.28011Z" fill="white"/>
<path d="M132.8 205.17C186.576 205.17 230.17 161.576 230.17 107.8C230.17 54.0242 186.576 10.4302 132.8 10.4302C79.0242 10.4302 35.4302 54.0242 35.4302 107.8C35.4302 161.576 79.0242 205.17 132.8 205.17Z" fill="black" stroke="white" stroke-width="0.5" stroke-miterlimit="10"/>
<path d="M86.76 148.92C83.66 148.92 80.67 148.15 77.79 146.6C74.91 145.05 72.64 142.94 71 140.27C69.15 137.04 67.96 133.52 67.42 129.69C66.88 125.87 66.57 122.13 66.51 118.47C66.48 117.51 66.46 116.58 66.46 115.65C66.46 112.59 66.61 109.52 66.9 106.46C65.55 100.37 62.57 95.1303 57.96 90.7503C56.51 93.5503 55.09 96.3703 53.71 99.2003C51.73 103.15 49.82 107.12 47.98 111.11C46.86 113.51 45.74 115.9 44.62 118.27C43.96 119.79 43.01 121.05 41.75 122.08C40.17 123.23 38.54 123.81 36.86 123.81C34.92 123.81 33.07 123.2 31.33 121.98C29.58 120.76 28.28 119.2 27.43 117.29C27.3 117.03 27.23 116.75 27.23 116.45V116.3C27.23 115.74 27.53 115.21 28.12 114.72C29.41 113.8 30.57 112.69 31.63 111.38C32.68 110.08 33.67 108.77 34.59 107.45C36.86 104.19 39.04 100.83 41.11 97.3703C43.71 93.0903 46.3 88.7703 48.87 84.4203C44.82 82.4803 40.68 81.5003 36.47 81.5003C34.95 81.5003 33.46 81.6503 31.97 81.9403C27.88 82.7303 24.76 84.9103 22.58 88.4603C22.18 89.1503 21.82 89.9903 21.49 90.9803C21.16 91.9703 21 92.9203 21 93.8503C21 94.5803 21.12 95.2303 21.35 95.8303C21.68 96.3603 22.11 96.6603 22.63 96.7403C23.16 96.8203 23.62 97.1103 24.01 97.6003C24.17 97.9303 24.26 98.2803 24.26 98.6403C24.26 99.1003 24.15 99.5703 23.94 100.05C23.73 100.53 23.5 100.95 23.27 101.31C22.45 102.6 21.38 103.59 20.08 104.3C18.78 105.01 17.39 105.46 15.9 105.66C15.11 105.76 14.32 105.81 13.53 105.81C10.73 105.81 8.14 105.11 5.75 103.71C3.36 102.31 1.66 100.19 0.64 97.3603C0.21 96.0403 0 94.7203 0 93.4103C0 90.8703 0.6 88.4003 1.8 86.0003C3 83.6003 4.51 81.5203 6.32 79.7703C8.89 77.4003 11.84 75.6403 15.17 74.5103C18.5 73.3703 21.87 72.6103 25.3 72.2103C27.61 71.9503 29.91 71.8103 32.22 71.8103C37.16 71.8103 42 72.6003 46.75 74.1803C48.99 74.9703 51.15 75.9403 53.22 77.1003C54.21 75.4503 55.2 73.8203 56.19 72.2103C58.56 68.2603 61.07 64.4203 63.7 60.7003C65.48 58.0703 67.52 55.6403 69.83 53.4403C73.03 50.7103 76.6 49.3403 80.55 49.3403C81.74 49.3403 82.94 49.4603 84.16 49.6903C84.82 49.7903 85.59 49.9803 86.48 50.2603C87.37 50.5403 88.17 50.9303 88.88 51.4203C89.59 51.9103 89.94 52.5603 89.94 53.3503C89.94 53.6803 89.86 54.0403 89.69 54.4403C89.13 55.4603 88.57 56.4803 88.01 57.5003C86.4 61.3203 85.06 65.3403 84.01 69.5603C82.76 74.3403 81.74 79.1903 80.95 84.1103C80.16 89.0403 79.76 93.9703 79.76 98.9103C79.76 100.95 79.84 103.01 80.01 105.09C80.17 107.76 80.58 110.4 81.22 113.02C81.86 115.64 82.84 118.12 84.16 120.46C85.94 123.56 88.21 126.24 90.98 128.51C92.07 129.47 93.28 130.3 94.61 131.01C95.94 131.72 97.34 132.07 98.79 132.07L99.43 132.02C99.96 132.02 100.38 132.22 100.69 132.61C101 133.01 101.18 133.45 101.21 133.94C101.24 134.24 101.26 134.55 101.26 134.88C101.26 138.21 100.22 141.15 98.15 143.7C96.07 146.25 93.34 147.89 89.95 148.62C88.9 148.82 87.84 148.92 86.79 148.92H86.76ZM68.77 92.2403C69.66 86.7703 70.66 81.3403 71.78 75.9303C72.5 72.5003 73.26 69.0803 74.05 65.6503C74.12 65.4503 74.21 65.1603 74.35 64.7903C74.48 64.4103 74.55 64.1103 74.55 63.8803V63.7303H74.45C74.45 63.7303 74.37 63.7503 74.3 63.7803C73.18 64.1403 72.36 64.8503 71.83 65.9103C68.3 71.6403 64.96 77.4703 61.8 83.4003C62.95 84.4903 64.04 85.6403 65.06 86.8603C66.48 88.5703 67.71 90.3703 68.77 92.2503V92.2403Z" fill="white"/>
<path d="M122.99 120.61C120.68 120.61 118.53 120.04 116.54 118.91C114.55 117.77 113.07 116.09 112.12 113.84C111.53 112.39 111.1 110.84 110.84 109.19C110.58 107.54 110.44 105.88 110.44 104.2C110.44 103.31 110.47 102.44 110.54 101.58V98.3702C110.54 97.8102 110.72 97.3702 111.08 97.0602C111.44 96.7502 111.89 96.5602 112.41 96.4902C113.04 96.4202 113.53 96.3902 113.89 96.3902C114.25 96.3902 114.73 96.2802 115.32 96.0402C116.83 95.3802 118.22 94.4302 119.47 93.1702C120.72 91.9202 121.79 90.6202 122.68 89.2702C123.11 88.6402 123.59 87.6802 124.11 86.3802C124.64 85.0802 124.9 83.8802 124.9 82.8002C124.9 82.0402 124.73 81.4602 124.38 81.0502C124.03 80.6402 123.47 80.4302 122.67 80.4302C121.42 80.4302 120.23 80.7802 119.11 81.4702C117.99 82.1602 116.97 83.0102 116.05 84.0202C115.13 85.0302 114.32 86.0002 113.63 86.9602C109.91 92.3602 107.04 98.1902 105.03 104.45C104.54 106.46 104.02 108.64 103.5 111C102.97 113.36 102.71 115.65 102.71 117.89C102.71 118.55 102.44 119.07 101.89 119.45C101.35 119.83 100.7 120.1 99.9601 120.27C99.2201 120.44 98.5301 120.52 97.9101 120.52C95.9701 120.52 94.1401 119.85 92.4201 118.49C91.6001 117.83 91.0001 117.07 90.6401 116.22C90.2801 115.36 90.1001 114.46 90.1001 113.5C90.1001 112.97 90.1501 112.43 90.2501 111.87C91.4401 105.61 92.8501 99.3902 94.5001 93.1902C97.4301 81.5302 100.86 70.0002 104.78 58.6002C105.18 57.4102 105.61 56.1602 106.09 54.8402C106.57 53.5202 107.18 52.2902 107.92 51.1302C108.66 49.9802 109.65 49.0402 110.89 48.3102C112.13 47.5902 113.71 47.2202 115.66 47.2202C117.21 47.2202 118.67 47.5502 120.03 48.2102C121.4 48.8702 122.13 50.0102 122.23 51.6202C122.23 52.2102 121.92 52.7402 121.29 53.2002H121.24V53.2502C120.05 55.3902 119 57.7502 118.08 60.3202C115.05 68.5202 112.36 76.8602 110.03 85.3302C111.51 83.2202 113.19 81.3002 115.07 79.5702C116.95 77.8402 118.97 76.4502 121.12 75.3902C123.28 74.3402 125.49 73.8102 127.77 73.8102C129.55 73.8102 131.22 74.2102 132.79 75.0002C134.35 75.7902 135.66 77.0302 136.72 78.7102C137.61 80.3602 138.05 82.0702 138.05 83.8502C138.05 86.4202 137.37 88.9602 136.02 91.4602C134.67 93.9602 133.1 96.0602 131.33 97.7402C128 100.9 124.12 102.85 119.67 103.57C121.91 105.32 124.61 106.19 127.77 106.19C129.28 106.19 130.77 106.01 132.22 105.65C135.75 104.6 138.66 102.59 140.97 99.6202C143.28 96.6502 145.14 93.5102 146.55 90.1802C146.91 89.4902 147.37 89.1402 147.93 89.1402C148.42 89.1402 148.89 89.3502 149.34 89.7602C149.78 90.1702 150.01 90.6702 150.01 91.2702C150.01 91.5302 149.94 91.8002 149.81 92.0602C148.62 94.7602 147.31 97.3802 145.86 99.9202C143.36 104.53 140.39 108.82 136.96 112.77C135.67 114.22 134.3 115.54 132.83 116.72C131.36 117.91 129.82 118.85 128.19 119.56C126.56 120.27 124.82 120.62 122.98 120.62L122.99 120.61Z" fill="white"/>
<path d="M173.49 120.61C171.18 120.61 169.03 120.04 167.04 118.91C165.05 117.77 163.57 116.09 162.62 113.84C162.03 112.39 161.6 110.84 161.34 109.19C161.08 107.54 160.94 105.88 160.94 104.2C160.94 103.31 160.97 102.44 161.04 101.58V98.3702C161.04 97.8102 161.22 97.3702 161.58 97.0602C161.94 96.7502 162.39 96.5602 162.91 96.4902C163.54 96.4202 164.03 96.3902 164.39 96.3902C164.75 96.3902 165.23 96.2802 165.82 96.0402C167.33 95.3802 168.72 94.4302 169.97 93.1702C171.22 91.9202 172.29 90.6202 173.18 89.2702C173.61 88.6402 174.09 87.6802 174.61 86.3802C175.14 85.0802 175.4 83.8802 175.4 82.8002C175.4 82.0402 175.23 81.4602 174.88 81.0502C174.53 80.6402 173.97 80.4302 173.17 80.4302C171.92 80.4302 170.73 80.7802 169.61 81.4702C168.49 82.1602 167.47 83.0102 166.55 84.0202C165.63 85.0302 164.82 86.0002 164.13 86.9602C160.41 92.3602 157.54 98.1902 155.53 104.45C155.04 106.46 154.52 108.64 154 111C153.47 113.36 153.21 115.65 153.21 117.89C153.21 118.55 152.94 119.07 152.39 119.45C151.85 119.83 151.2 120.1 150.46 120.27C149.72 120.44 149.03 120.52 148.41 120.52C146.47 120.52 144.64 119.85 142.92 118.49C142.1 117.83 141.5 117.07 141.14 116.22C140.78 115.36 140.6 114.46 140.6 113.5C140.6 112.97 140.65 112.43 140.75 111.87C141.94 105.61 143.35 99.3902 145 93.1902C147.93 81.5302 151.36 70.0002 155.28 58.6002C155.68 57.4102 156.11 56.1602 156.59 54.8402C157.07 53.5202 157.68 52.2902 158.42 51.1302C159.16 49.9802 160.15 49.0402 161.39 48.3102C162.63 47.5902 164.21 47.2202 166.16 47.2202C167.71 47.2202 169.17 47.5502 170.53 48.2102C171.9 48.8702 172.63 50.0102 172.73 51.6202C172.73 52.2102 172.42 52.7402 171.79 53.2002H171.74V53.2502C170.55 55.3902 169.5 57.7502 168.58 60.3202C165.55 68.5202 162.86 76.8602 160.53 85.3302C162.01 83.2202 163.69 81.3002 165.57 79.5702C167.45 77.8402 169.47 76.4502 171.62 75.3902C173.78 74.3402 175.99 73.8102 178.27 73.8102C180.05 73.8102 181.72 74.2102 183.29 75.0002C184.85 75.7902 186.16 77.0302 187.22 78.7102C188.11 80.3602 188.55 82.0702 188.55 83.8502C188.55 86.4202 187.87 88.9602 186.52 91.4602C185.17 93.9602 183.6 96.0602 181.83 97.7402C178.5 100.9 174.62 102.85 170.17 103.57C172.41 105.32 175.11 106.19 178.27 106.19C179.78 106.19 181.27 106.01 182.72 105.65C186.25 104.6 189.16 102.59 191.47 99.6202C193.78 96.6502 195.64 93.5102 197.05 90.1802C197.41 89.4902 197.87 89.1402 198.43 89.1402C198.92 89.1402 199.39 89.3502 199.84 89.7602C200.28 90.1702 200.51 90.6702 200.51 91.2702C200.51 91.5302 200.44 91.8002 200.31 92.0602C199.12 94.7602 197.81 97.3802 196.36 99.9202C193.86 104.53 190.89 108.82 187.46 112.77C186.17 114.22 184.8 115.54 183.33 116.72C181.86 117.91 180.32 118.85 178.69 119.56C177.06 120.27 175.32 120.62 173.48 120.62L173.49 120.61Z" fill="white"/>
<path d="M232.05 120.61C230.24 120.61 228.43 120.15 226.61 119.23C224.67 118.18 223.32 116.79 222.56 115.08C221.8 113.37 221.42 111.54 221.42 109.59C221.42 108.27 221.54 106.94 221.77 105.59C220.35 108.29 218.76 110.88 216.98 113.35C215.43 115.56 213.66 117.31 211.67 118.61C209.68 119.91 207.35 120.56 204.68 120.56C202.44 120.56 200.31 120.02 198.31 118.93C196.27 117.71 194.73 116.07 193.69 114.01C192.65 111.95 192.13 109.8 192.13 107.56C192.13 106.18 192.28 104.79 192.57 103.38C192.87 101.98 193.21 100.62 193.61 99.3001C194.66 95.7401 195.96 92.2601 197.49 88.8501C199.02 85.4401 200.63 82.0901 202.31 78.7901C202.74 77.9301 203.18 77.0901 203.64 76.2701C204.17 75.3501 204.97 74.7001 206.04 74.3201C207.11 73.9401 208.37 73.7501 209.82 73.7501C211.11 73.7501 212.37 73.9701 213.63 74.3901C214.88 74.8201 215.72 75.6101 216.15 76.7601C216.22 76.9301 216.25 77.1101 216.25 77.3001C216.25 77.7901 216.07 78.2201 215.71 78.5801C215.35 78.9101 215.1 79.2901 214.97 79.7201C213.55 82.5201 212.45 85.3201 211.66 88.1201C210.38 91.7801 209.4 95.5301 208.74 99.3901C208.64 99.9201 208.59 100.49 208.59 101.12C208.59 101.75 208.67 102.37 208.84 103C209 103.63 209.3 104.15 209.73 104.58C210.29 105.04 210.92 105.27 211.61 105.27C212.14 105.27 212.66 105.15 213.19 104.92C215.07 104.06 216.71 102.74 218.11 100.94C219.51 99.1401 220.72 97.3901 221.74 95.6801C224.38 91.3301 226.78 86.8301 228.95 82.1901C229.31 81.3701 229.74 80.3501 230.23 79.1301C230.66 78.0401 231.15 77.0401 231.71 76.1201C232.27 75.2001 233.13 74.5201 234.28 74.0901C235.2 73.7901 236.21 73.6501 237.29 73.6501C238.58 73.6501 239.81 73.8901 241 74.3701C242.19 74.8501 243.03 75.6501 243.52 76.7701C243.59 76.9401 243.62 77.1001 243.62 77.2601C243.62 77.6901 243.5 78.0401 243.25 78.3201C243 78.6001 242.7 79.0701 242.34 79.7301C241.98 80.3901 241.66 81.1001 241.4 81.8501C240.71 83.7601 240.1 85.6901 239.57 87.6301C238.91 89.8401 238.33 91.9701 237.84 94.0301C237.35 96.0901 237.08 98.1601 237.05 100.23C237.05 101.12 237.17 101.98 237.42 102.82C237.67 103.66 238.17 104.34 238.93 104.87C239.92 105.53 240.97 105.86 242.09 105.86C243.64 105.86 245.1 105.4 246.49 104.48C248.76 102.9 250.62 100.85 252.05 98.3301C253.48 95.8101 254.68 93.2601 255.63 90.6901C255.96 89.7401 256.57 89.2601 257.46 89.2601C257.95 89.2601 258.41 89.4101 258.84 89.7001C259.27 90.0001 259.48 90.4101 259.48 90.9401C259.48 91.2401 259.41 91.5201 259.28 91.7801C258.32 94.3801 257.19 96.9001 255.87 99.3401C253.83 103.39 251.39 107.18 248.56 110.71C247.27 112.32 245.76 113.88 244.01 115.38C242.26 116.88 240.37 118.12 238.33 119.11C236.29 120.1 234.2 120.59 232.05 120.59V120.61Z" fill="white"/>
<path d="M114.06 165.81C112.92 169.18 110.54 172.25 105.04 172.25C99.9398 172.25 97.5098 169 97.5098 163.89C97.5098 158.32 100.64 150.35 108.26 150.35C113.4 150.35 115.42 153.69 115.33 157.3H111.82C111.67 155.3 110.91 153.3 107.87 153.3C103.32 153.3 101.31 159.36 101.31 163.61C101.31 167.18 102.58 169.32 105.46 169.32C108.11 169.32 109.4 167.97 110.38 165.81H114.06Z" fill="white"/>
<path d="M105.04 172.73C99.9498 172.73 97.0298 169.51 97.0298 163.89C97.0298 158.27 100.08 149.88 108.25 149.88C110.67 149.88 112.57 150.57 113.9 151.94C115.18 153.25 115.85 155.16 115.8 157.31V157.77H111.38L111.35 157.33C111.16 154.87 110.09 153.77 107.87 153.77C103.67 153.77 101.78 159.52 101.78 163.61C101.78 167.14 102.98 168.85 105.46 168.85C107.94 168.85 109.07 167.56 109.95 165.62L110.08 165.34H114.73L114.52 165.96C113 170.45 109.82 172.72 105.05 172.72L105.04 172.73ZM108.25 150.83C100.77 150.83 97.9798 158.84 97.9798 163.9C97.9798 167.5 99.2098 171.79 105.04 171.79C109.19 171.79 111.92 169.99 113.38 166.29H110.68C109.83 168.07 108.51 169.8 105.46 169.8C103.35 169.8 100.83 168.73 100.83 163.61C100.83 159.13 103.01 152.83 107.87 152.83C110.44 152.83 111.91 154.18 112.25 156.83H114.86C114.81 155.12 114.24 153.63 113.23 152.6C112.08 151.42 110.41 150.82 108.26 150.82L108.25 150.83Z" fill="white"/>
<path d="M121.53 166.28L118.64 171.94H114.86C118.28 165.29 121.66 158.68 125.84 150.63H130.53L132.78 171.94H129.16L128.55 166.28H121.53ZM128.45 163.25C128.03 158.53 127.65 155.32 127.63 153.51H127.59C126.54 155.89 124.91 159.3 122.87 163.25H128.46H128.45Z" fill="white"/>
<path d="M133.31 172.42H128.74L128.13 166.76H121.82L118.93 172.42H114.09L115.64 169.4C118.66 163.51 121.74 157.52 125.42 150.42L125.55 150.17H130.95L133.3 172.42H133.31ZM129.59 171.47H132.26L130.11 151.11H126.13C122.5 158.1 119.47 164.02 116.48 169.83L115.64 171.47H118.35L121.24 165.81H128.97L129.58 171.47H129.59ZM128.97 163.72H122.09L122.45 163.03C124.33 159.39 126 155.94 127.16 153.31L127.28 153.03H128.06L128.11 153.5C128.12 154.7 128.3 156.52 128.54 159.05C128.66 160.28 128.79 161.66 128.93 163.21L128.98 163.72H128.97ZM123.64 162.77H127.93C127.81 161.43 127.69 160.22 127.59 159.13C127.45 157.65 127.33 156.41 127.25 155.39C126.25 157.56 125.01 160.1 123.64 162.77Z" fill="white"/>
<path d="M139.86 150.64H152.7L152.04 153.67H142.77L141.53 159.56H150.24L149.58 162.55H140.87L138.91 171.95H135.33L139.85 150.64H139.86Z" fill="white"/>
<path d="M139.3 172.42H134.76L139.48 150.17H153.29L152.43 154.15H143.16L142.12 159.09H150.84L149.97 163.02H141.26L139.3 172.42ZM135.92 171.47H138.53L140.49 162.07H149.21L149.66 160.03H140.95L142.39 153.2H151.66L152.11 151.12H140.24L135.93 171.48L135.92 171.47Z" fill="white"/>
<path d="M166.09 162.33H157.16L155.77 168.93H166.26L165.18 171.94H151.59L156.11 150.63H168.98L168.32 153.66H159L157.79 159.29H166.72L166.08 162.32L166.09 162.33Z" fill="white"/>
<path d="M165.51 172.42H151.01L155.73 150.17H169.57L168.71 154.15H159.4L158.4 158.84H167.33L166.5 162.82H157.57L156.38 168.48H166.96L165.54 172.43L165.51 172.42ZM152.17 171.47H164.84L165.58 169.41H155.18L156.77 161.86H165.7L166.14 159.78H157.21L158.62 153.2H167.94L168.39 151.12H156.49L152.18 171.48L152.17 171.47Z" fill="white"/>
</svg>
