<?xml version="1.0" encoding="UTF-8"?>
<svg id="Layer_2" data-name="Layer 2" xmlns="http://www.w3.org/2000/svg" viewBox="0 0 359.18 359.18">
  <defs>
    <style>
      .cls-1 {
        fill: #fff;
      }

      .cls-2 {
        fill: #993520;
      }

      .cls-3 {
        fill: #f9b200;
      }

      .cls-4 {
        fill: none;
      }

      .cls-5 {
        fill: #231f20;
      }
    </style>
  </defs>
  <g id="pc_design">
    <g>
      <g>
        <g>
          <circle class="cls-1" cx="179.59" cy="179.59" r="134.54"/>
          <path class="cls-5" d="M179.59,315.03c-74.68,0-135.44-60.76-135.44-135.44S104.91,44.15,179.59,44.15s135.44,60.76,135.44,135.44-60.76,135.44-135.44,135.44Zm0-269.08c-73.69,0-133.64,59.95-133.64,133.64s59.95,133.64,133.64,133.64,133.64-59.95,133.64-133.64S253.28,45.95,179.59,45.95Z"/>
        </g>
        <circle class="cls-3" cx="179.59" cy="179.59" r="123.32"/>
        <g>
          <g>
            <path d="M129.05,231.68c-3.92,0-7.71-.98-11.36-2.94-3.65-1.96-6.52-4.63-8.61-8.01-2.34-4.09-3.85-8.55-4.54-13.39-.69-4.84-1.07-9.58-1.16-14.21-.04-1.21-.06-2.4-.06-3.57,0-3.88,.19-7.76,.56-11.64-1.71-7.72-5.49-14.35-11.33-19.9-1.84,3.55-3.63,7.11-5.38,10.7-2.5,5.01-4.92,10.04-7.26,15.08-1.42,3.05-2.84,6.07-4.26,9.07-.84,1.92-2.04,3.53-3.63,4.82-2,1.46-4.07,2.19-6.2,2.19-2.46,0-4.8-.77-7.01-2.32-2.21-1.54-3.86-3.53-4.94-5.95-.17-.33-.25-.69-.25-1.06v-.19c0-.71,.38-1.38,1.13-2,1.63-1.17,3.11-2.58,4.44-4.22,1.33-1.65,2.59-3.31,3.75-4.98,2.88-4.13,5.63-8.39,8.26-12.77,3.3-5.42,6.57-10.89,9.83-16.4-5.13-2.46-10.37-3.69-15.71-3.69-1.92,0-3.82,.19-5.7,.56-5.17,1-9.14,3.76-11.89,8.26-.5,.88-.96,1.94-1.38,3.19-.42,1.25-.63,2.46-.63,3.63,0,.92,.15,1.75,.44,2.5,.42,.67,.96,1.05,1.63,1.16,.67,.1,1.25,.47,1.75,1.1,.21,.42,.31,.86,.31,1.31,0,.58-.14,1.18-.41,1.78-.27,.61-.55,1.14-.85,1.6-1.04,1.63-2.39,2.89-4.04,3.79-1.65,.9-3.41,1.47-5.29,1.72-1,.13-2,.19-3,.19-3.55,0-6.83-.89-9.86-2.66-3.03-1.77-5.18-4.45-6.48-8.04-.54-1.67-.81-3.34-.81-5.01,0-3.21,.76-6.34,2.28-9.39,1.52-3.05,3.43-5.67,5.73-7.89,3.25-3,6.99-5.23,11.2-6.67,4.21-1.44,8.49-2.41,12.83-2.91,2.92-.33,5.84-.5,8.76-.5,6.26,0,12.39,1,18.4,3,2.84,1,5.57,2.23,8.2,3.69,1.25-2.09,2.5-4.15,3.76-6.2,3-5.01,6.17-9.87,9.51-14.58,2.25-3.34,4.84-6.4,7.76-9.2,4.05-3.46,8.57-5.19,13.58-5.19,1.5,0,3.02,.15,4.57,.44,.83,.13,1.81,.37,2.94,.72,1.13,.35,2.14,.84,3.04,1.47,.9,.63,1.35,1.44,1.35,2.44,0,.42-.1,.88-.31,1.38-.71,1.29-1.42,2.59-2.13,3.88-2.04,4.84-3.73,9.93-5.07,15.27-1.59,6.05-2.88,12.19-3.88,18.43-1,6.24-1.5,12.49-1.5,18.74,0,2.59,.1,5.2,.31,7.82,.21,3.38,.72,6.73,1.53,10.04,.81,3.32,2.05,6.46,3.72,9.42,2.25,3.92,5.13,7.32,8.64,10.2,1.38,1.21,2.91,2.26,4.6,3.16,1.69,.9,3.45,1.35,5.29,1.35l.81-.06c.67,0,1.2,.25,1.6,.75,.4,.5,.61,1.06,.66,1.69,.04,.38,.06,.77,.06,1.19,0,4.21-1.31,7.94-3.94,11.17-2.63,3.23-6.09,5.31-10.39,6.23-1.34,.25-2.67,.38-4.01,.38Zm-22.78-71.79c1.13-6.93,2.4-13.81,3.82-20.65,.92-4.34,1.88-8.68,2.88-13.02,.08-.25,.21-.61,.38-1.09,.17-.48,.25-.87,.25-1.16v-.19h-.13s-.1,.02-.19,.06c-1.42,.46-2.46,1.36-3.13,2.69-4.47,7.26-8.7,14.65-12.71,22.16,1.46,1.38,2.84,2.84,4.13,4.38,1.79,2.17,3.36,4.44,4.69,6.82Z"/>
            <path d="M174.92,195.81c-2.92,0-5.64-.72-8.17-2.16-2.52-1.44-4.39-3.58-5.6-6.42-.75-1.84-1.29-3.8-1.63-5.88-.33-2.09-.5-4.19-.5-6.32,0-1.13,.04-2.23,.13-3.32v-4.07c0-.71,.23-1.26,.69-1.66,.46-.4,1.02-.64,1.69-.72,.79-.08,1.42-.13,1.88-.13s1.06-.14,1.82-.44c1.92-.83,3.67-2.04,5.26-3.63,1.59-1.59,2.94-3.23,4.07-4.94,.54-.79,1.15-2.01,1.82-3.66,.67-1.65,1-3.16,1-4.54,0-.96-.22-1.7-.66-2.22-.44-.52-1.16-.78-2.16-.78-1.59,0-3.09,.44-4.51,1.31-1.42,.88-2.71,1.95-3.88,3.22-1.17,1.27-2.19,2.51-3.07,3.72-4.72,6.84-8.35,14.23-10.89,22.16-.63,2.55-1.27,5.31-1.94,8.29-.67,2.98-1,5.89-1,8.73,0,.84-.34,1.49-1.03,1.97-.69,.48-1.5,.83-2.44,1.03-.94,.21-1.81,.31-2.6,.31-2.46,0-4.78-.85-6.95-2.57-1.04-.83-1.79-1.79-2.25-2.88-.46-1.08-.69-2.23-.69-3.44,0-.67,.06-1.36,.19-2.07,1.5-7.93,3.3-15.81,5.38-23.66,3.71-14.77,8.05-29.37,13.02-43.81,.5-1.5,1.05-3.09,1.66-4.76,.6-1.67,1.38-3.23,2.32-4.69,.94-1.46,2.19-2.65,3.76-3.57,1.56-.92,3.58-1.38,6.04-1.38,1.96,0,3.81,.42,5.54,1.25,1.73,.83,2.66,2.28,2.79,4.32,0,.75-.4,1.42-1.19,2h-.06v.06c-1.5,2.71-2.84,5.7-4.01,8.95-3.84,10.39-7.24,20.95-10.2,31.67,1.88-2.67,4.01-5.1,6.38-7.29,2.38-2.19,4.93-3.95,7.67-5.29,2.73-1.34,5.54-2,8.42-2,2.25,0,4.37,.5,6.35,1.5,1.98,1,3.64,2.57,4.98,4.69,1.13,2.09,1.69,4.26,1.69,6.51,0,3.25-.86,6.47-2.57,9.64-1.71,3.17-3.69,5.82-5.95,7.95-4.21,4.01-9.14,6.47-14.77,7.38,2.84,2.21,6.26,3.32,10.26,3.32,1.92,0,3.8-.23,5.63-.69,4.46-1.34,8.16-3.88,11.08-7.64,2.92-3.76,5.28-7.74,7.07-11.95,.46-.88,1.04-1.32,1.75-1.32,.63,0,1.22,.26,1.78,.78,.56,.52,.84,1.16,.84,1.91,0,.33-.08,.67-.25,1-1.5,3.42-3.17,6.74-5.01,9.95-3.17,5.84-6.93,11.27-11.27,16.27-1.63,1.84-3.37,3.51-5.23,5.01-1.86,1.5-3.82,2.7-5.88,3.6-2.07,.9-4.27,1.35-6.6,1.35Z"/>
            <path d="M238.89,195.81c-2.92,0-5.64-.72-8.17-2.16-2.52-1.44-4.39-3.58-5.6-6.42-.75-1.84-1.29-3.8-1.63-5.88-.33-2.09-.5-4.19-.5-6.32,0-1.13,.04-2.23,.13-3.32v-4.07c0-.71,.23-1.26,.69-1.66,.46-.4,1.02-.64,1.69-.72,.79-.08,1.42-.13,1.88-.13s1.06-.14,1.82-.44c1.92-.83,3.67-2.04,5.26-3.63,1.59-1.59,2.94-3.23,4.07-4.94,.54-.79,1.15-2.01,1.82-3.66,.67-1.65,1-3.16,1-4.54,0-.96-.22-1.7-.66-2.22-.44-.52-1.16-.78-2.16-.78-1.59,0-3.09,.44-4.51,1.31-1.42,.88-2.71,1.95-3.88,3.22-1.17,1.27-2.19,2.51-3.07,3.72-4.72,6.84-8.35,14.23-10.89,22.16-.63,2.55-1.27,5.31-1.94,8.29-.67,2.98-1,5.89-1,8.73,0,.84-.34,1.49-1.03,1.97-.69,.48-1.5,.83-2.44,1.03-.94,.21-1.81,.31-2.6,.31-2.46,0-4.78-.85-6.95-2.57-1.04-.83-1.79-1.79-2.25-2.88-.46-1.08-.69-2.23-.69-3.44,0-.67,.06-1.36,.19-2.07,1.5-7.93,3.3-15.81,5.38-23.66,3.71-14.77,8.05-29.37,13.02-43.81,.5-1.5,1.05-3.09,1.66-4.76,.6-1.67,1.38-3.23,2.32-4.69,.94-1.46,2.19-2.65,3.76-3.57,1.56-.92,3.58-1.38,6.04-1.38,1.96,0,3.81,.42,5.54,1.25,1.73,.83,2.66,2.28,2.79,4.32,0,.75-.4,1.42-1.19,2h-.06v.06c-1.5,2.71-2.84,5.7-4.01,8.95-3.84,10.39-7.24,20.95-10.2,31.67,1.88-2.67,4.01-5.1,6.38-7.29,2.38-2.19,4.93-3.95,7.67-5.29,2.73-1.34,5.54-2,8.42-2,2.25,0,4.37,.5,6.35,1.5,1.98,1,3.64,2.57,4.98,4.69,1.13,2.09,1.69,4.26,1.69,6.51,0,3.25-.86,6.47-2.57,9.64-1.71,3.17-3.69,5.82-5.95,7.95-4.21,4.01-9.14,6.47-14.77,7.38,2.84,2.21,6.26,3.32,10.26,3.32,1.92,0,3.8-.23,5.63-.69,4.46-1.34,8.16-3.88,11.08-7.64,2.92-3.76,5.28-7.74,7.07-11.95,.46-.88,1.04-1.32,1.75-1.32,.63,0,1.22,.26,1.78,.78,.56,.52,.84,1.16,.84,1.91,0,.33-.08,.67-.25,1-1.5,3.42-3.17,6.74-5.01,9.95-3.17,5.84-6.93,11.27-11.27,16.27-1.63,1.84-3.37,3.51-5.23,5.01-1.86,1.5-3.82,2.7-5.88,3.6-2.07,.9-4.27,1.35-6.6,1.35Z"/>
            <path d="M313.05,195.81c-2.3,0-4.59-.58-6.88-1.75-2.46-1.34-4.17-3.09-5.13-5.26-.96-2.17-1.44-4.49-1.44-6.95,0-1.67,.15-3.36,.44-5.07-1.79,3.42-3.82,6.7-6.07,9.83-1.96,2.8-4.2,5.02-6.73,6.67-2.52,1.65-5.48,2.47-8.86,2.47-2.84,0-5.53-.69-8.07-2.07-2.59-1.54-4.54-3.62-5.85-6.23-1.31-2.61-1.97-5.33-1.97-8.17,0-1.75,.19-3.51,.56-5.29,.38-1.77,.81-3.49,1.31-5.16,1.34-4.51,2.97-8.92,4.91-13.24,1.94-4.32,3.97-8.56,6.1-12.74,.54-1.08,1.1-2.15,1.69-3.19,.67-1.17,1.68-1.99,3.04-2.47,1.36-.48,2.95-.72,4.79-.72,1.63,0,3.23,.27,4.82,.81,1.58,.54,2.65,1.54,3.19,3,.08,.21,.13,.44,.13,.69,0,.63-.23,1.17-.69,1.63-.46,.42-.77,.9-.94,1.44-1.79,3.55-3.19,7.09-4.19,10.64-1.63,4.63-2.86,9.39-3.69,14.27-.13,.67-.19,1.4-.19,2.19s.1,1.59,.31,2.38c.21,.79,.58,1.46,1.13,2,.71,.59,1.5,.88,2.38,.88,.67,0,1.34-.15,2-.44,2.38-1.08,4.45-2.76,6.23-5.04,1.77-2.27,3.31-4.5,4.6-6.67,3.34-5.51,6.38-11.2,9.14-17.09,.46-1.04,1-2.34,1.63-3.88,.54-1.38,1.17-2.65,1.88-3.82,.71-1.17,1.79-2.02,3.25-2.57,1.17-.38,2.44-.56,3.82-.56,1.63,0,3.19,.3,4.69,.91,1.5,.6,2.57,1.62,3.19,3.04,.08,.21,.13,.42,.13,.63,0,.54-.16,.99-.47,1.35-.31,.36-.7,.95-1.16,1.78-.46,.83-.86,1.73-1.19,2.69-.88,2.42-1.65,4.86-2.32,7.32-.84,2.8-1.56,5.5-2.19,8.11-.63,2.61-.96,5.23-1,7.85,0,1.13,.16,2.22,.47,3.29,.31,1.06,.95,1.93,1.91,2.6,1.25,.83,2.59,1.25,4.01,1.25,1.96,0,3.82-.58,5.57-1.75,2.88-2,5.23-4.6,7.04-7.79,1.82-3.19,3.33-6.42,4.54-9.67,.42-1.21,1.19-1.81,2.32-1.81,.63,0,1.21,.19,1.75,.56,.54,.38,.81,.9,.81,1.56,0,.38-.08,.73-.25,1.06-1.21,3.3-2.65,6.49-4.32,9.58-2.59,5.13-5.67,9.93-9.26,14.4-1.63,2.04-3.55,4.02-5.76,5.91-2.21,1.9-4.61,3.47-7.2,4.72-2.59,1.25-5.24,1.88-7.95,1.88Z"/>
          </g>
          <g>
            <path class="cls-1" d="M126.46,231.68c-3.92,0-7.71-.98-11.36-2.94-3.65-1.96-6.52-4.63-8.61-8.01-2.34-4.09-3.85-8.55-4.54-13.39-.69-4.84-1.07-9.58-1.16-14.21-.04-1.21-.06-2.4-.06-3.57,0-3.88,.19-7.76,.56-11.64-1.71-7.72-5.49-14.35-11.33-19.9-1.84,3.55-3.63,7.11-5.38,10.7-2.5,5.01-4.92,10.04-7.26,15.08-1.42,3.05-2.84,6.07-4.26,9.07-.84,1.92-2.04,3.53-3.63,4.82-2,1.46-4.07,2.19-6.2,2.19-2.46,0-4.8-.77-7.01-2.32-2.21-1.54-3.86-3.53-4.94-5.95-.17-.33-.25-.69-.25-1.06v-.19c0-.71,.38-1.38,1.13-2,1.63-1.17,3.11-2.58,4.44-4.22,1.33-1.65,2.59-3.31,3.75-4.98,2.88-4.13,5.63-8.39,8.26-12.77,3.3-5.42,6.57-10.89,9.83-16.4-5.13-2.46-10.37-3.69-15.71-3.69-1.92,0-3.82,.19-5.7,.56-5.17,1-9.14,3.76-11.89,8.26-.5,.88-.96,1.94-1.38,3.19-.42,1.25-.63,2.46-.63,3.63,0,.92,.15,1.75,.44,2.5,.42,.67,.96,1.05,1.63,1.16,.67,.1,1.25,.47,1.75,1.1,.21,.42,.31,.86,.31,1.31,0,.58-.14,1.18-.41,1.78-.27,.61-.55,1.14-.85,1.6-1.04,1.63-2.39,2.89-4.04,3.79-1.65,.9-3.41,1.47-5.29,1.72-1,.13-2,.19-3,.19-3.55,0-6.83-.89-9.86-2.66-3.03-1.77-5.18-4.45-6.48-8.04-.54-1.67-.81-3.34-.81-5.01,0-3.21,.76-6.34,2.28-9.39,1.52-3.05,3.43-5.67,5.73-7.89,3.25-3,6.99-5.23,11.2-6.67,4.21-1.44,8.49-2.41,12.83-2.91,2.92-.33,5.84-.5,8.76-.5,6.26,0,12.39,1,18.4,3,2.84,1,5.57,2.23,8.2,3.69,1.25-2.09,2.5-4.15,3.76-6.2,3-5.01,6.17-9.87,9.51-14.58,2.25-3.34,4.84-6.4,7.76-9.2,4.05-3.46,8.57-5.19,13.58-5.19,1.5,0,3.02,.15,4.57,.44,.83,.13,1.81,.37,2.94,.72,1.13,.35,2.14,.84,3.04,1.47,.9,.63,1.35,1.44,1.35,2.44,0,.42-.1,.88-.31,1.38-.71,1.29-1.42,2.59-2.13,3.88-2.04,4.84-3.73,9.93-5.07,15.27-1.59,6.05-2.88,12.19-3.88,18.43-1,6.24-1.5,12.49-1.5,18.74,0,2.59,.1,5.2,.31,7.82,.21,3.38,.72,6.73,1.53,10.04,.81,3.32,2.05,6.46,3.72,9.42,2.25,3.92,5.13,7.32,8.64,10.2,1.38,1.21,2.91,2.26,4.6,3.16,1.69,.9,3.45,1.35,5.29,1.35l.81-.06c.67,0,1.2,.25,1.6,.75,.4,.5,.61,1.06,.66,1.69,.04,.38,.06,.77,.06,1.19,0,4.21-1.31,7.94-3.94,11.17-2.63,3.23-6.09,5.31-10.39,6.23-1.34,.25-2.67,.38-4.01,.38Zm-22.78-71.79c1.13-6.93,2.4-13.81,3.82-20.65,.92-4.34,1.88-8.68,2.88-13.02,.08-.25,.21-.61,.38-1.09,.17-.48,.25-.87,.25-1.16v-.19h-.13s-.1,.02-.19,.06c-1.42,.46-2.46,1.36-3.13,2.69-4.47,7.26-8.7,14.65-12.71,22.16,1.46,1.38,2.84,2.84,4.13,4.38,1.79,2.17,3.36,4.44,4.69,6.82Z"/>
            <path class="cls-1" d="M172.34,195.81c-2.92,0-5.64-.72-8.17-2.16-2.52-1.44-4.39-3.58-5.6-6.42-.75-1.84-1.29-3.8-1.63-5.88-.33-2.09-.5-4.19-.5-6.32,0-1.13,.04-2.23,.13-3.32v-4.07c0-.71,.23-1.26,.69-1.66,.46-.4,1.02-.64,1.69-.72,.79-.08,1.42-.13,1.88-.13s1.06-.14,1.82-.44c1.92-.83,3.67-2.04,5.26-3.63,1.59-1.59,2.94-3.23,4.07-4.94,.54-.79,1.15-2.01,1.82-3.66,.67-1.65,1-3.16,1-4.54,0-.96-.22-1.7-.66-2.22-.44-.52-1.16-.78-2.16-.78-1.59,0-3.09,.44-4.51,1.31-1.42,.88-2.71,1.95-3.88,3.22-1.17,1.27-2.19,2.51-3.07,3.72-4.72,6.84-8.35,14.23-10.89,22.16-.63,2.55-1.27,5.31-1.94,8.29-.67,2.98-1,5.89-1,8.73,0,.84-.34,1.49-1.03,1.97-.69,.48-1.5,.83-2.44,1.03-.94,.21-1.81,.31-2.6,.31-2.46,0-4.78-.85-6.95-2.57-1.04-.83-1.79-1.79-2.25-2.88-.46-1.08-.69-2.23-.69-3.44,0-.67,.06-1.36,.19-2.07,1.5-7.93,3.3-15.81,5.38-23.66,3.71-14.77,8.05-29.37,13.02-43.81,.5-1.5,1.05-3.09,1.66-4.76,.6-1.67,1.38-3.23,2.32-4.69,.94-1.46,2.19-2.65,3.76-3.57,1.56-.92,3.58-1.38,6.04-1.38,1.96,0,3.81,.42,5.54,1.25,1.73,.83,2.66,2.28,2.79,4.32,0,.75-.4,1.42-1.19,2h-.06v.06c-1.5,2.71-2.84,5.7-4.01,8.95-3.84,10.39-7.24,20.95-10.2,31.67,1.88-2.67,4.01-5.1,6.38-7.29,2.38-2.19,4.93-3.95,7.67-5.29,2.73-1.34,5.54-2,8.42-2,2.25,0,4.37,.5,6.35,1.5,1.98,1,3.64,2.57,4.98,4.69,1.13,2.09,1.69,4.26,1.69,6.51,0,3.25-.86,6.47-2.57,9.64-1.71,3.17-3.69,5.82-5.95,7.95-4.21,4.01-9.14,6.47-14.77,7.38,2.84,2.21,6.26,3.32,10.26,3.32,1.92,0,3.8-.23,5.63-.69,4.46-1.34,8.16-3.88,11.08-7.64,2.92-3.76,5.28-7.74,7.07-11.95,.46-.88,1.04-1.32,1.75-1.32,.63,0,1.22,.26,1.78,.78,.56,.52,.84,1.16,.84,1.91,0,.33-.08,.67-.25,1-1.5,3.42-3.17,6.74-5.01,9.95-3.17,5.84-6.93,11.27-11.27,16.27-1.63,1.84-3.37,3.51-5.23,5.01-1.86,1.5-3.82,2.7-5.88,3.6-2.07,.9-4.27,1.35-6.6,1.35Z"/>
            <path class="cls-1" d="M236.3,195.81c-2.92,0-5.64-.72-8.17-2.16-2.52-1.44-4.39-3.58-5.6-6.42-.75-1.84-1.29-3.8-1.63-5.88-.33-2.09-.5-4.19-.5-6.32,0-1.13,.04-2.23,.13-3.32v-4.07c0-.71,.23-1.26,.69-1.66,.46-.4,1.02-.64,1.69-.72,.79-.08,1.42-.13,1.88-.13s1.06-.14,1.82-.44c1.92-.83,3.67-2.04,5.26-3.63,1.59-1.59,2.94-3.23,4.07-4.94,.54-.79,1.15-2.01,1.82-3.66,.67-1.65,1-3.16,1-4.54,0-.96-.22-1.7-.66-2.22-.44-.52-1.16-.78-2.16-.78-1.59,0-3.09,.44-4.51,1.31-1.42,.88-2.71,1.95-3.88,3.22-1.17,1.27-2.19,2.51-3.07,3.72-4.72,6.84-8.35,14.23-10.89,22.16-.63,2.55-1.27,5.31-1.94,8.29-.67,2.98-1,5.89-1,8.73,0,.84-.34,1.49-1.03,1.97-.69,.48-1.5,.83-2.44,1.03-.94,.21-1.81,.31-2.6,.31-2.46,0-4.78-.85-6.95-2.57-1.04-.83-1.79-1.79-2.25-2.88-.46-1.08-.69-2.23-.69-3.44,0-.67,.06-1.36,.19-2.07,1.5-7.93,3.3-15.81,5.38-23.66,3.71-14.77,8.05-29.37,13.02-43.81,.5-1.5,1.05-3.09,1.66-4.76,.6-1.67,1.38-3.23,2.32-4.69,.94-1.46,2.19-2.65,3.76-3.57,1.56-.92,3.58-1.38,6.04-1.38,1.96,0,3.81,.42,5.54,1.25,1.73,.83,2.66,2.28,2.79,4.32,0,.75-.4,1.42-1.19,2h-.06v.06c-1.5,2.71-2.84,5.7-4.01,8.95-3.84,10.39-7.24,20.95-10.2,31.67,1.88-2.67,4.01-5.1,6.38-7.29,2.38-2.19,4.93-3.95,7.67-5.29,2.73-1.34,5.54-2,8.42-2,2.25,0,4.37,.5,6.35,1.5,1.98,1,3.64,2.57,4.98,4.69,1.13,2.09,1.69,4.26,1.69,6.51,0,3.25-.86,6.47-2.57,9.64-1.71,3.17-3.69,5.82-5.95,7.95-4.21,4.01-9.14,6.47-14.77,7.38,2.84,2.21,6.26,3.32,10.26,3.32,1.92,0,3.8-.23,5.63-.69,4.46-1.34,8.16-3.88,11.08-7.64,2.92-3.76,5.28-7.74,7.07-11.95,.46-.88,1.04-1.32,1.75-1.32,.63,0,1.22,.26,1.78,.78,.56,.52,.84,1.16,.84,1.91,0,.33-.08,.67-.25,1-1.5,3.42-3.17,6.74-5.01,9.95-3.17,5.84-6.93,11.27-11.27,16.27-1.63,1.84-3.37,3.51-5.23,5.01-1.86,1.5-3.82,2.7-5.88,3.6-2.07,.9-4.27,1.35-6.6,1.35Z"/>
            <path class="cls-1" d="M310.47,195.81c-2.3,0-4.59-.58-6.88-1.75-2.46-1.34-4.17-3.09-5.13-5.26-.96-2.17-1.44-4.49-1.44-6.95,0-1.67,.15-3.36,.44-5.07-1.79,3.42-3.82,6.7-6.07,9.83-1.96,2.8-4.2,5.02-6.73,6.67-2.52,1.65-5.48,2.47-8.86,2.47-2.84,0-5.53-.69-8.07-2.07-2.59-1.54-4.54-3.62-5.85-6.23-1.31-2.61-1.97-5.33-1.97-8.17,0-1.75,.19-3.51,.56-5.29,.38-1.77,.81-3.49,1.31-5.16,1.34-4.51,2.97-8.92,4.91-13.24,1.94-4.32,3.97-8.56,6.1-12.74,.54-1.08,1.1-2.15,1.69-3.19,.67-1.17,1.68-1.99,3.04-2.47,1.36-.48,2.95-.72,4.79-.72,1.63,0,3.23,.27,4.82,.81,1.58,.54,2.65,1.54,3.19,3,.08,.21,.13,.44,.13,.69,0,.63-.23,1.17-.69,1.63-.46,.42-.77,.9-.94,1.44-1.79,3.55-3.19,7.09-4.19,10.64-1.63,4.63-2.86,9.39-3.69,14.27-.13,.67-.19,1.4-.19,2.19s.1,1.59,.31,2.38c.21,.79,.58,1.46,1.13,2,.71,.59,1.5,.88,2.38,.88,.67,0,1.34-.15,2-.44,2.38-1.08,4.45-2.76,6.23-5.04,1.77-2.27,3.31-4.5,4.6-6.67,3.34-5.51,6.38-11.2,9.14-17.09,.46-1.04,1-2.34,1.63-3.88,.54-1.38,1.17-2.65,1.88-3.82,.71-1.17,1.79-2.02,3.25-2.57,1.17-.38,2.44-.56,3.82-.56,1.63,0,3.19,.3,4.69,.91,1.5,.6,2.57,1.62,3.19,3.04,.08,.21,.13,.42,.13,.63,0,.54-.16,.99-.47,1.35-.31,.36-.7,.95-1.16,1.78-.46,.83-.86,1.73-1.19,2.69-.88,2.42-1.65,4.86-2.32,7.32-.84,2.8-1.56,5.5-2.19,8.11-.63,2.61-.96,5.23-1,7.85,0,1.13,.16,2.22,.47,3.29,.31,1.06,.95,1.93,1.91,2.6,1.25,.83,2.59,1.25,4.01,1.25,1.96,0,3.82-.58,5.57-1.75,2.88-2,5.23-4.6,7.04-7.79,1.82-3.19,3.33-6.42,4.54-9.67,.42-1.21,1.19-1.81,2.32-1.81,.63,0,1.21,.19,1.75,.56,.54,.38,.81,.9,.81,1.56,0,.38-.08,.73-.25,1.06-1.21,3.3-2.65,6.49-4.32,9.58-2.59,5.13-5.67,9.93-9.26,14.4-1.63,2.04-3.55,4.02-5.76,5.91-2.21,1.9-4.61,3.47-7.2,4.72-2.59,1.25-5.24,1.88-7.95,1.88Z"/>
          </g>
          <g>
            <path class="cls-2" d="M121.29,231.68c-3.92,0-7.71-.98-11.36-2.94-3.65-1.96-6.52-4.63-8.61-8.01-2.34-4.09-3.85-8.55-4.54-13.39-.69-4.84-1.07-9.58-1.16-14.21-.04-1.21-.06-2.4-.06-3.57,0-3.88,.19-7.76,.56-11.64-1.71-7.72-5.49-14.35-11.33-19.9-1.84,3.55-3.63,7.11-5.38,10.7-2.5,5.01-4.92,10.04-7.26,15.08-1.42,3.05-2.84,6.07-4.26,9.07-.84,1.92-2.04,3.53-3.63,4.82-2,1.46-4.07,2.19-6.2,2.19-2.46,0-4.8-.77-7.01-2.32-2.21-1.54-3.86-3.53-4.94-5.95-.17-.33-.25-.69-.25-1.06v-.19c0-.71,.38-1.38,1.13-2,1.63-1.17,3.11-2.58,4.44-4.22,1.33-1.65,2.59-3.31,3.75-4.98,2.88-4.13,5.63-8.39,8.26-12.77,3.3-5.42,6.57-10.89,9.83-16.4-5.13-2.46-10.37-3.69-15.71-3.69-1.92,0-3.82,.19-5.7,.56-5.17,1-9.14,3.76-11.89,8.26-.5,.88-.96,1.94-1.38,3.19-.42,1.25-.63,2.46-.63,3.63,0,.92,.15,1.75,.44,2.5,.42,.67,.96,1.05,1.63,1.16,.67,.1,1.25,.47,1.75,1.1,.21,.42,.31,.86,.31,1.31,0,.58-.14,1.18-.41,1.78-.27,.61-.55,1.14-.85,1.6-1.04,1.63-2.39,2.89-4.04,3.79-1.65,.9-3.41,1.47-5.29,1.72-1,.13-2,.19-3,.19-3.55,0-6.83-.89-9.86-2.66-3.03-1.77-5.18-4.45-6.48-8.04-.54-1.67-.81-3.34-.81-5.01,0-3.21,.76-6.34,2.28-9.39,1.52-3.05,3.43-5.67,5.73-7.89,3.25-3,6.99-5.23,11.2-6.67,4.21-1.44,8.49-2.41,12.83-2.91,2.92-.33,5.84-.5,8.76-.5,6.26,0,12.39,1,18.4,3,2.84,1,5.57,2.23,8.2,3.69,1.25-2.09,2.5-4.15,3.76-6.2,3-5.01,6.17-9.87,9.51-14.58,2.25-3.34,4.84-6.4,7.76-9.2,4.05-3.46,8.57-5.19,13.58-5.19,1.5,0,3.02,.15,4.57,.44,.83,.13,1.81,.37,2.94,.72,1.13,.35,2.14,.84,3.04,1.47,.9,.63,1.35,1.44,1.35,2.44,0,.42-.1,.88-.31,1.38-.71,1.29-1.42,2.59-2.13,3.88-2.04,4.84-3.73,9.93-5.07,15.27-1.59,6.05-2.88,12.19-3.88,18.43-1,6.24-1.5,12.49-1.5,18.74,0,2.59,.1,5.2,.31,7.82,.21,3.38,.72,6.73,1.53,10.04,.81,3.32,2.05,6.46,3.72,9.42,2.25,3.92,5.13,7.32,8.64,10.2,1.38,1.21,2.91,2.26,4.6,3.16,1.69,.9,3.45,1.35,5.29,1.35l.81-.06c.67,0,1.2,.25,1.6,.75,.4,.5,.61,1.06,.66,1.69,.04,.38,.06,.77,.06,1.19,0,4.21-1.31,7.94-3.94,11.17-2.63,3.23-6.09,5.31-10.39,6.23-1.34,.25-2.67,.38-4.01,.38Zm-22.78-71.79c1.13-6.93,2.4-13.81,3.82-20.65,.92-4.34,1.88-8.68,2.88-13.02,.08-.25,.21-.61,.38-1.09,.17-.48,.25-.87,.25-1.16v-.19h-.13s-.1,.02-.19,.06c-1.42,.46-2.46,1.36-3.13,2.69-4.47,7.26-8.7,14.65-12.71,22.16,1.46,1.38,2.84,2.84,4.13,4.38,1.79,2.17,3.36,4.44,4.69,6.82Z"/>
            <path class="cls-2" d="M167.16,195.81c-2.92,0-5.64-.72-8.17-2.16-2.52-1.44-4.39-3.58-5.6-6.42-.75-1.84-1.29-3.8-1.63-5.88-.33-2.09-.5-4.19-.5-6.32,0-1.13,.04-2.23,.13-3.32v-4.07c0-.71,.23-1.26,.69-1.66,.46-.4,1.02-.64,1.69-.72,.79-.08,1.42-.13,1.88-.13s1.06-.14,1.82-.44c1.92-.83,3.67-2.04,5.26-3.63,1.59-1.59,2.94-3.23,4.07-4.94,.54-.79,1.15-2.01,1.82-3.66,.67-1.65,1-3.16,1-4.54,0-.96-.22-1.7-.66-2.22-.44-.52-1.16-.78-2.16-.78-1.59,0-3.09,.44-4.51,1.31-1.42,.88-2.71,1.95-3.88,3.22-1.17,1.27-2.19,2.51-3.07,3.72-4.72,6.84-8.35,14.23-10.89,22.16-.63,2.55-1.27,5.31-1.94,8.29-.67,2.98-1,5.89-1,8.73,0,.84-.34,1.49-1.03,1.97-.69,.48-1.5,.83-2.44,1.03-.94,.21-1.81,.31-2.6,.31-2.46,0-4.78-.85-6.95-2.57-1.04-.83-1.79-1.79-2.25-2.88-.46-1.08-.69-2.23-.69-3.44,0-.67,.06-1.36,.19-2.07,1.5-7.93,3.3-15.81,5.38-23.66,3.71-14.77,8.05-29.37,13.02-43.81,.5-1.5,1.05-3.09,1.66-4.76,.6-1.67,1.38-3.23,2.32-4.69,.94-1.46,2.19-2.65,3.76-3.57,1.56-.92,3.58-1.38,6.04-1.38,1.96,0,3.81,.42,5.54,1.25,1.73,.83,2.66,2.28,2.79,4.32,0,.75-.4,1.42-1.19,2h-.06v.06c-1.5,2.71-2.84,5.7-4.01,8.95-3.84,10.39-7.24,20.95-10.2,31.67,1.88-2.67,4.01-5.1,6.38-7.29,2.38-2.19,4.93-3.95,7.67-5.29,2.73-1.34,5.54-2,8.42-2,2.25,0,4.37,.5,6.35,1.5,1.98,1,3.64,2.57,4.98,4.69,1.13,2.09,1.69,4.26,1.69,6.51,0,3.25-.86,6.47-2.57,9.64-1.71,3.17-3.69,5.82-5.95,7.95-4.21,4.01-9.14,6.47-14.77,7.38,2.84,2.21,6.26,3.32,10.26,3.32,1.92,0,3.8-.23,5.63-.69,4.46-1.34,8.16-3.88,11.08-7.64,2.92-3.76,5.28-7.74,7.07-11.95,.46-.88,1.04-1.32,1.75-1.32,.63,0,1.22,.26,1.78,.78,.56,.52,.84,1.16,.84,1.91,0,.33-.08,.67-.25,1-1.5,3.42-3.17,6.74-5.01,9.95-3.17,5.84-6.93,11.27-11.27,16.27-1.63,1.84-3.37,3.51-5.23,5.01-1.86,1.5-3.82,2.7-5.88,3.6-2.07,.9-4.27,1.35-6.6,1.35Z"/>
            <path class="cls-2" d="M231.13,195.81c-2.92,0-5.64-.72-8.17-2.16-2.52-1.44-4.39-3.58-5.6-6.42-.75-1.84-1.29-3.8-1.63-5.88-.33-2.09-.5-4.19-.5-6.32,0-1.13,.04-2.23,.13-3.32v-4.07c0-.71,.23-1.26,.69-1.66,.46-.4,1.02-.64,1.69-.72,.79-.08,1.42-.13,1.88-.13s1.06-.14,1.82-.44c1.92-.83,3.67-2.04,5.26-3.63,1.59-1.59,2.94-3.23,4.07-4.94,.54-.79,1.15-2.01,1.82-3.66,.67-1.65,1-3.16,1-4.54,0-.96-.22-1.7-.66-2.22-.44-.52-1.16-.78-2.16-.78-1.59,0-3.09,.44-4.51,1.31-1.42,.88-2.71,1.95-3.88,3.22-1.17,1.27-2.19,2.51-3.07,3.72-4.72,6.84-8.35,14.23-10.89,22.16-.63,2.55-1.27,5.31-1.94,8.29-.67,2.98-1,5.89-1,8.73,0,.84-.34,1.49-1.03,1.97-.69,.48-1.5,.83-2.44,1.03-.94,.21-1.81,.31-2.6,.31-2.46,0-4.78-.85-6.95-2.57-1.04-.83-1.79-1.79-2.25-2.88-.46-1.08-.69-2.23-.69-3.44,0-.67,.06-1.36,.19-2.07,1.5-7.93,3.3-15.81,5.38-23.66,3.71-14.77,8.05-29.37,13.02-43.81,.5-1.5,1.05-3.09,1.66-4.76,.6-1.67,1.38-3.23,2.32-4.69,.94-1.46,2.19-2.65,3.76-3.57,1.56-.92,3.58-1.38,6.04-1.38,1.96,0,3.81,.42,5.54,1.25,1.73,.83,2.66,2.28,2.79,4.32,0,.75-.4,1.42-1.19,2h-.06v.06c-1.5,2.71-2.84,5.7-4.01,8.95-3.84,10.39-7.24,20.95-10.2,31.67,1.88-2.67,4.01-5.1,6.38-7.29,2.38-2.19,4.93-3.95,7.67-5.29,2.73-1.34,5.54-2,8.42-2,2.25,0,4.37,.5,6.35,1.5,1.98,1,3.64,2.57,4.98,4.69,1.13,2.09,1.69,4.26,1.69,6.51,0,3.25-.86,6.47-2.57,9.64-1.71,3.17-3.69,5.82-5.95,7.95-4.21,4.01-9.14,6.47-14.77,7.38,2.84,2.21,6.26,3.32,10.26,3.32,1.92,0,3.8-.23,5.63-.69,4.46-1.34,8.16-3.88,11.08-7.64,2.92-3.76,5.28-7.74,7.07-11.95,.46-.88,1.04-1.32,1.75-1.32,.63,0,1.22,.26,1.78,.78,.56,.52,.84,1.16,.84,1.91,0,.33-.08,.67-.25,1-1.5,3.42-3.17,6.74-5.01,9.95-3.17,5.84-6.93,11.27-11.27,16.27-1.63,1.84-3.37,3.51-5.23,5.01-1.86,1.5-3.82,2.7-5.88,3.6-2.07,.9-4.27,1.35-6.6,1.35Z"/>
            <path class="cls-2" d="M305.3,195.81c-2.3,0-4.59-.58-6.88-1.75-2.46-1.34-4.17-3.09-5.13-5.26-.96-2.17-1.44-4.49-1.44-6.95,0-1.67,.15-3.36,.44-5.07-1.79,3.42-3.82,6.7-6.07,9.83-1.96,2.8-4.2,5.02-6.73,6.67-2.52,1.65-5.48,2.47-8.86,2.47-2.84,0-5.53-.69-8.07-2.07-2.59-1.54-4.54-3.62-5.85-6.23-1.31-2.61-1.97-5.33-1.97-8.17,0-1.75,.19-3.51,.56-5.29,.38-1.77,.81-3.49,1.31-5.16,1.34-4.51,2.97-8.92,4.91-13.24s3.97-8.56,6.1-12.74c.54-1.08,1.1-2.15,1.69-3.19,.67-1.17,1.68-1.99,3.04-2.47,1.36-.48,2.95-.72,4.79-.72,1.63,0,3.23,.27,4.82,.81,1.58,.54,2.65,1.54,3.19,3,.08,.21,.13,.44,.13,.69,0,.63-.23,1.17-.69,1.63-.46,.42-.77,.9-.94,1.44-1.79,3.55-3.19,7.09-4.19,10.64-1.63,4.63-2.86,9.39-3.69,14.27-.13,.67-.19,1.4-.19,2.19s.1,1.59,.31,2.38c.21,.79,.58,1.46,1.13,2,.71,.59,1.5,.88,2.38,.88,.67,0,1.34-.15,2-.44,2.38-1.08,4.45-2.76,6.23-5.04,1.77-2.27,3.31-4.5,4.6-6.67,3.34-5.51,6.38-11.2,9.14-17.09,.46-1.04,1-2.34,1.63-3.88,.54-1.38,1.17-2.65,1.88-3.82,.71-1.17,1.79-2.02,3.25-2.57,1.17-.38,2.44-.56,3.82-.56,1.63,0,3.19,.3,4.69,.91,1.5,.6,2.57,1.62,3.19,3.04,.08,.21,.13,.42,.13,.63,0,.54-.16,.99-.47,1.35-.31,.36-.7,.95-1.16,1.78-.46,.83-.86,1.73-1.19,2.69-.88,2.42-1.65,4.86-2.32,7.32-.84,2.8-1.56,5.5-2.19,8.11-.63,2.61-.96,5.23-1,7.85,0,1.13,.16,2.22,.47,3.29,.31,1.06,.95,1.93,1.91,2.6,1.25,.83,2.59,1.25,4.01,1.25,1.96,0,3.82-.58,5.57-1.75,2.88-2,5.23-4.6,7.04-7.79,1.82-3.19,3.33-6.42,4.54-9.67,.42-1.21,1.19-1.81,2.32-1.81,.63,0,1.21,.19,1.75,.56,.54,.38,.81,.9,.81,1.56,0,.38-.08,.73-.25,1.06-1.21,3.3-2.65,6.49-4.32,9.58-2.59,5.13-5.67,9.93-9.26,14.4-1.63,2.04-3.55,4.02-5.76,5.91-2.21,1.9-4.61,3.47-7.2,4.72-2.59,1.25-5.24,1.88-7.95,1.88Z"/>
          </g>
        </g>
        <g>
          <g>
            <path class="cls-1" d="M155.85,253.07c-1.45,4.27-4.46,8.16-11.42,8.16-6.46,0-9.54-4.12-9.54-10.59,0-7.05,3.97-17.15,13.61-17.15,6.51,0,9.07,4.23,8.96,8.8h-4.45c-.19-2.53-1.16-5.06-5-5.06-5.76,0-8.31,7.67-8.31,13.06,0,4.52,1.61,7.24,5.26,7.24,3.36,0,4.99-1.71,6.23-4.45h4.66Z"/>
            <path class="cls-5" d="M144.43,261.82c-6.44,0-10.14-4.08-10.14-11.19s3.86-17.75,14.21-17.75c3.06,0,5.47,.88,7.16,2.61,1.62,1.66,2.47,4.07,2.4,6.8v.58h-5.6l-.04-.55c-.24-3.12-1.6-4.51-4.4-4.51-5.32,0-7.71,7.29-7.71,12.46,0,4.47,1.53,6.64,4.66,6.64s4.58-1.64,5.68-4.1l.16-.35h5.88l-.27,.79c-1.92,5.68-5.96,8.57-11.99,8.57Zm4.07-27.74c-9.48,0-13.01,10.15-13.01,16.55,0,4.56,1.55,9.99,8.94,9.99,5.25,0,8.72-2.28,10.57-6.96h-3.42c-1.08,2.26-2.75,4.45-6.61,4.45-2.67,0-5.86-1.36-5.86-7.83,0-5.67,2.76-13.66,8.91-13.66,3.26,0,5.12,1.7,5.54,5.06h3.31c-.06-2.16-.78-4.05-2.06-5.35-1.46-1.49-3.58-2.25-6.3-2.25Z"/>
          </g>
          <g>
            <path class="cls-1" d="M165.32,253.66l-3.65,7.17h-4.78c4.33-8.43,8.62-16.8,13.9-26.98h5.94l2.85,26.98h-4.58l-.78-7.17h-8.89Zm8.76-3.84c-.53-5.97-1.02-10.04-1.04-12.34h-.05c-1.33,3.02-3.39,7.33-5.98,12.34h7.07Z"/>
            <path class="cls-5" d="M180.24,261.43h-5.79l-.78-7.17h-7.99l-3.65,7.17h-6.13l1.96-3.82c3.83-7.46,7.72-15.04,12.39-24.04l.17-.32h6.84l2.97,28.18Zm-4.71-1.2h3.38l-2.72-25.79h-5.04c-4.6,8.86-8.44,16.35-12.22,23.71l-1.06,2.07h3.44l3.65-7.17h9.79l.78,7.17Zm-.79-9.81h-8.71l.45-.87c2.38-4.61,4.5-8.98,5.96-12.3l.16-.36h.98l.06,.59c.02,1.52,.24,3.83,.55,7.02,.15,1.56,.32,3.31,.49,5.27l.06,.65Zm-6.75-1.2h5.44c-.15-1.7-.3-3.23-.43-4.61-.18-1.87-.33-3.44-.43-4.74-1.27,2.75-2.84,5.97-4.57,9.34Z"/>
          </g>
          <g>
            <path class="cls-1" d="M188.53,233.85h16.27l-.83,3.84h-11.74l-1.57,7.45h11.04l-.83,3.78h-11.04l-2.49,11.91h-4.53l5.72-26.98Z"/>
            <path class="cls-5" d="M187.83,261.43h-5.75l5.97-28.18h17.5l-1.09,5.03h-11.74l-1.31,6.26h11.04l-1.1,4.98h-11.03l-2.49,11.91Zm-4.28-1.2h3.3l2.49-11.91h11.04l.57-2.59h-11.03l1.82-8.65h11.74l.57-2.64h-15.04l-5.46,25.79Z"/>
          </g>
          <g>
            <path class="cls-1" d="M221.75,248.66h-11.31l-1.76,8.36h13.29l-1.37,3.81h-17.21l5.72-26.98h16.3l-.83,3.84h-11.8l-1.53,7.14h11.31l-.81,3.84Z"/>
            <path class="cls-5" d="M221.02,261.43h-18.37l5.97-28.18h17.53l-1.09,5.03h-11.8l-1.27,5.94h11.3l-1.06,5.03h-11.31l-1.51,7.17h13.4l-1.8,5.01Zm-16.89-1.2h16.05l.94-2.61h-13.17l2.01-9.56h11.31l.55-2.64h-11.31l1.78-8.33h11.8l.57-2.64h-15.07l-5.46,25.79Z"/>
          </g>
        </g>
      </g>
      <rect class="cls-4" y="0" width="359.18" height="359.18"/>
    </g>
  </g>
</svg>