<?xml version="1.0" encoding="UTF-8"?>
<svg id="Layer_2" data-name="Layer 2" xmlns="http://www.w3.org/2000/svg" viewBox="0 0 40.61 32.69">
  <defs>
    <style>
      .cls-1 {
        fill: #f9b200;
      }
    </style>
  </defs>
  <g id="tab_hero">
    <path class="cls-1" d="M0,2.72C0,1.22,1.3,0,2.9,0H37.71c1.6,0,2.9,1.22,2.9,2.72s-1.3,2.72-2.9,2.72H2.9c-1.6,0-2.9-1.22-2.9-2.72Zm0,13.62c0-1.51,1.3-2.72,2.9-2.72H37.71c1.6,0,2.9,1.22,2.9,2.72s-1.3,2.72-2.9,2.72H2.9c-1.6,0-2.9-1.22-2.9-2.72Zm40.61,13.62c0,1.51-1.3,2.72-2.9,2.72H2.9c-1.6,0-2.9-1.22-2.9-2.72s1.3-2.72,2.9-2.72H37.71c1.6,0,2.9,1.22,2.9,2.72Z"/>
  </g>
</svg>