<svg width="27" height="24" viewBox="0 0 27 24" fill="none" xmlns="http://www.w3.org/2000/svg">
<path d="M18.8702 3.89607L23.0991 8.12502C23.2773 8.30318 23.2773 8.59387 23.0991 8.77203L12.8596 19.0115L8.50879 19.4944C7.92743 19.5601 7.43515 19.0678 7.50078 18.4864L7.98369 14.1356L18.2232 3.89607C18.4014 3.71791 18.692 3.71791 18.8702 3.89607ZM26.4654 2.82243L24.1775 0.534479C23.4648 -0.17816 22.3068 -0.17816 21.5895 0.534479L19.9298 2.19418C19.7516 2.37234 19.7516 2.66302 19.9298 2.84118L24.1587 7.07013C24.3369 7.24829 24.6276 7.24829 24.8057 7.07013L26.4654 5.41043C27.1781 4.6931 27.1781 3.53507 26.4654 2.82243ZM17.9981 16.2266V20.9994H2.99522V5.99648H13.7692C13.9192 5.99648 14.0599 5.93553 14.1677 5.83239L16.0431 3.95702C16.3994 3.6007 16.1462 2.9959 15.6446 2.9959H2.24507C1.00264 2.9959 -0.00537109 4.00391 -0.00537109 5.24634V21.7496C-0.00537109 22.992 1.00264 24 2.24507 24H18.7483C19.9907 24 20.9987 22.992 20.9987 21.7496V14.3512C20.9987 13.8496 20.3939 13.6011 20.0376 13.9527L18.1622 15.8281C18.0591 15.9359 17.9981 16.0766 17.9981 16.2266Z" fill="black"/>
</svg>
