<?xml version="1.0" encoding="UTF-8"?>
<svg id="Layer_2" data-name="Layer 2" xmlns="http://www.w3.org/2000/svg" viewBox="0 0 144.22 51.67">
  <defs>
    <style>
      .cls-1 {
        fill: #f9b200;
      }
    </style>
  </defs>
  <g id="pc_design">
    <path class="cls-1" d="M23.84,47.86c-.25-.19-.7-.32-.95-.64-1.21-1.59-1.14-3.37-.7-5.08,1.27-4.7,2.48-9.47,4.13-13.98,2.67-7.24,5.66-14.36,8.58-21.54,.13-.38,.64-.64,.95-.95,.32,.57,.7,1.14,.89,1.72,.13,.25-.13,.64-.32,.95-.76,1.52-1.08,3.24-1.91,4.83-1.65,3.3-2.8,6.93-4.19,10.36-.7,1.97-1.46,3.88-2.22,5.97,.38-.06,.57,0,.76-.13,9.85-3.69,22.18-9.28,28.28-18.3,1.78-2.61,1.27-4.26-1.4-5.97-3.88-2.48-8.58-2.99-13.09-2.99C29.56,2.1,12.53,7.88,2.23,15.95c-.45,.38-.76,.89-1.4,1.59-.19-.25-.76-.64-.83-1.08-.06-.38,.25-1.02,.57-1.33C11.32,5.66,29.43-.06,43.35,0,48.63,0,54.85,1.14,58.41,5.47c2.1,2.48,2.16,5.08,.38,7.82-5.08,8.26-20.21,15.13-28.85,17.99-.32,.13-.64,.25-1.02,.25-1.52,0-1.72,.44-2.16,1.78-.95,3.5-2.03,6.99-2.86,10.49-.32,1.27-.06,2.61-.06,4.07Zm37.75-11.31c-2.73,1.53-6.74,3.3-9.98,3.3-2.16,0-2.99-1.65-3.43-3.5-1.27,.95-2.35,1.97-3.56,2.73-.89,.64-3.94,2.54-4.96,2.54-.51,0-1.21-.25-1.59-.51-.76-.57-1.02-1.46-.7-2.54,1.08-3.05,3.11-5.02,6.17-6.04,.38-.13,.7-.19,1.02-.19,.89,0,1.72,.44,2.42,1.14,.25,.25,.64,.51,.95,.51,1.14,0,2.16,.76,2.03,1.91-.25,1.91,.13,2.54,1.21,2.54,.45,0,.95-.06,1.65-.25,2.48-.64,4.83-1.65,7.25-2.54,.32-.13,.64-.44,.95-.38,.32,0,.7,.25,.95,.51,.06,.06-.19,.64-.38,.76Zm-15.32-2.03c-.32-.25-.7-.44-1.08-.44-2.29,.32-5.21,3.18-5.78,5.59,.19-.06,.44-.06,.57-.13,2.03-1.4,4.07-2.8,6.1-4.26,.19-.13,.25-.7,.19-.76Zm24.98-4.07c.83,0,1.33,.51,1.72,1.46h-.51c-2.54,0-4.26,1.65-6.04,3.05-2.61,1.97-4.13,4.77-5.4,7.63-.19,.38-.38,1.02-.76,1.02-.06,0-.19-.06-.32-.13-.51-.19-1.08-.95-1.02-1.4,.76-3.5,1.59-6.93,2.42-10.42,1.65,.25,2.1,.89,1.59,2.16-.25,.7-.45,1.4-.51,2.16,1.02-.83,1.91-1.78,2.99-2.48,1.08-.76,4.58-3.05,5.85-3.05Zm16.21-8.01c-.38,.19-.7,.51-1.08,.57-1.4,.25-2.86,.38-4.26,.7-.44,.13-.95,.38-1.21,.76-3.56,6.36-6.8,12.84-7.69,20.21-.19,1.46-.19,2.92-.06,4.39,0,.83,.45,1.59,.76,2.42l-.19,.19c-1.78-.7-2.29-2.42-2.35-4.26-.13-4.39,.7-8.71,2.29-12.77,1.27-3.43,2.86-6.74,4.51-9.98-1.46,.32-2.67,.64-3.88,.89-.32,.06-.57,.13-.76,.13-.57,0-.83-.32-1.27-1.21,.32-.13,.64-.32,1.02-.44,1.78-.44,3.56-.89,5.34-1.4,.51-.19,1.08-.51,1.33-.95,1.21-1.78,2.22-3.56,3.31-5.34,.25-.44,.44-.83,.89-.83,.13,0,.32,.06,.51,.19,.7,.44,.64,1.02,.32,1.65-.83,1.46-1.65,2.99-2.42,4.51,1.02-.13,1.97-.19,2.86-.32,.19,0,.45-.06,.64-.06,.13,0,.25,0,.32,.06,.38,.19,.7,.57,1.08,.89Zm18.81,14.24c-2.67,2.48-7.31,4.89-11.06,4.89-3.3,0-4.32-2.99-4.96-5.66-.19-.57-.44-.89-.83-.89-1.14,0-7.05,5.02-8.07,6.04-.32,.25-.64,.44-.95,.44s-.7-.19-1.08-.44c-.7-.51-.89-1.08-.51-1.84,1.14-2.22,2.22-4.39,3.37-6.61,.19-.38,.45-.57,.76-.57,.19,0,.45,.06,.7,.19,.7,.25,.83,.76,.57,1.4-.38,.76-.76,1.59-1.27,2.67,1.4-.83,2.48-1.52,3.62-2.16,.83-.44,1.65-.64,2.35-.64,2.86,0,3.69,3.11,4.26,5.34,.25,.83,.7,1.21,1.46,1.21,3.05,0,7.69-2.35,9.98-4.32,.32-.25,.83-.44,1.21-.51,.32,0,.7,.32,.89,.64,.06,.13-.19,.57-.44,.83Zm27.01-1.02c-.19,.32-.38,.83-.7,.95-2.67,.89-5.28,1.91-8.01,2.54-3.56,.83-9.91,2.67-14.74,2.67-1.21,0-2.35-.13-3.3-.38-2.29-.57-3.11-2.35-2.86-4.7,.06-.95,.7-1.33,1.14-1.84,1.53-1.91,4.7-4.39,7.25-4.39,.76,0,1.4,.44,1.91,1.21,.57,.89,.19,1.72-.38,2.35-2.03,2.03-4.19,3.37-7.18,3.37-.63,0-1.08,0-1.27,.76-.13,.76,0,1.33,.7,1.53,1.27,.38,2.67,.51,4.13,.51,4.32,0,9.02-1.4,12.2-2.1,3.3-.83,6.55-1.97,9.85-2.92,.38-.06,.89,.25,1.27,.44Zm-26.69,.44c2.54-.44,4.51-1.72,6.29-3.88-2.1,0-5.4,1.91-6.29,3.88Zm35.91-5.66c.83,0,1.33,.51,1.72,1.46h-.51c-2.54,0-4.26,1.65-6.04,3.05-2.61,1.97-4.13,4.77-5.4,7.63-.19,.38-.38,1.02-.76,1.02-.06,0-.19-.06-.32-.13-.51-.19-1.08-.95-1.02-1.4,.76-3.5,1.59-6.93,2.42-10.42,1.65,.25,2.1,.89,1.59,2.16-.25,.7-.45,1.4-.51,2.16,1.02-.83,1.91-1.78,2.99-2.48,1.08-.76,4.58-3.05,5.85-3.05Z"/>
  </g>
</svg>