<?xml version="1.0" encoding="UTF-8"?>
<svg id="Layer_2" data-name="Layer 2" xmlns="http://www.w3.org/2000/svg" viewBox="0 0 146.11 36.74">
  <defs>
    <style>
      .cls-1 {
        fill: #993520;
      }
    </style>
  </defs>
  <g id="pc_design">
    <path class="cls-1" d="M.88,36.11c-.28,0-.48-.32-.88-1.03,.83-.56,1.63-1.11,2.47-1.59,3.7-2.11,7.67-3.58,11.61-5.01,7.87-2.86,15.75-5.61,23.58-8.51,2.58-.95,5.05-2.23,7.52-3.42,.8-.4,1.47-1.11,2.15-1.75,.44-.4,.36-.87-.28-1.11-1.55-.6-3.14-1.19-4.69-1.79-1.51-.6-3.02-1.15-4.49-1.79-1.31-.6-2.35-1.55-2.98-2.9-.52-1.11-.4-2.15,.4-3.06,2.62-2.62,7.63-4.14,11.25-4.14,2.35,0,4.06,.36,6.16,1.31,.48,.24,.83,.6,.83,1.23-.08,.04-.2,.08-.24,.08-1.47-1.07-3.22-1.27-4.93-1.27-3.94,0-7.6,1.03-10.86,3.26-2.23,1.51-2.15,2.98,.28,4.1,2.03,.95,4.21,1.63,6.28,2.43,.99,.4,1.99,.72,2.9,1.23,2.58,1.35,2.7,3.38,.32,5.09-2.43,1.67-5.13,2.82-7.87,3.82-7.44,2.58-14.87,5.13-22.27,7.79-3.98,1.43-7.91,3.06-11.85,4.65-1.19,.52-2.31,1.23-3.46,1.95-.44,.28-.72,.44-.95,.44ZM62.38,15.83c.28,0,.56,.16,.8,.56-.4,.2-.76,.4-1.11,.52-2.27,.76-4.53,1.51-6.8,2.23-.72,.24-1.59,.44-2.39,.44-1.43,0-2.43-1.19-2.03-2.62,.24-.83,1.11-3.62,2.19-3.62,.4,0,.76,.24,1.03,.64-1.19,1.07-1.63,2.51-1.87,4.02-.08,.48,.16,.6,.44,.6,.95,0,7.99-2.23,9.34-2.66,.12-.04,.28-.08,.4-.08Zm-8.99-4.85c-.16-.44-.04-.76,.48-.76s1.71,.32,1.71,.95c0,.48-.68,1.15-1.15,1.19-.56,.04-1.03-.56-1.03-1.39Zm21.87,5.01c.16-.08,.28-.12,.44-.12,.24,0,.48,.16,.68,.48-.28,.16-.52,.36-.8,.44-1.59,.72-7.2,3.38-7.67,5.17-1.87,5.85-2.82,8.35-6.6,13.08-.64,.8-2.15,1.71-3.18,1.71-.6,0-1.23-.2-1.79-.68-1.03-.83-1.31-1.71-.92-2.98,.56-1.75,1.55-3.26,2.74-4.65,2.31-2.7,5.13-4.85,7.91-7.04,.4-.32,.76-.83,.91-1.31,.44-1.23,.8-2.51,1.19-3.78,.04-.24,.08-.48,0-.8-.4,.44-.76,.87-1.15,1.27-.87,.83-1.71,1.71-2.66,2.39-.4,.32-.8,.44-1.15,.44-.44,0-.87-.16-1.23-.52-1.07-.95-1.23-1.71-.32-2.86,.72-.95,2.51-2.62,3.78-2.62,.56,0,1.15,.24,1.95,.64,.2-.16,.36-.32,.52-.48,.2-.24,.44-.32,.68-.32,.16,0,.32,.04,.52,.12,.48,.24,.83,.6,.76,1.19-.16,.95-.4,1.91-.6,2.86-.16,.56-.36,1.15-.6,1.91,.4-.24,.64-.4,.88-.56l5.73-2.98Zm-9.03,6.76c-.28,.12-.36,.12-.44,.16-3.34,2.62-8.27,6.68-9.34,11.01-.12,.6-.2,1.31,.4,1.59,.24,.12,.52,.16,.83,.16,.28,0,.56-.04,.76-.16,3.06-1.63,5.33-6.24,6.52-9.3,.44-1.07,.8-2.19,1.27-3.46Zm.56-7.87c-1.55,0-4.18,1.91-4.14,3.58,1.79-.76,2.78-2.31,4.14-3.58Zm24.33,1.87c-1.67,1.55-4.57,3.06-6.92,3.06-2.07,0-2.7-1.87-3.1-3.54-.12-.36-.28-.56-.52-.56-.72,0-4.41,3.14-5.05,3.78-.2,.16-.4,.28-.6,.28s-.44-.12-.68-.28c-.44-.32-.56-.68-.32-1.15,.72-1.39,1.39-2.74,2.11-4.14,.12-.24,.28-.36,.48-.36,.12,0,.28,.04,.44,.12,.44,.16,.52,.48,.36,.87-.24,.48-.48,.99-.8,1.67,.88-.52,1.55-.95,2.27-1.35,.52-.28,1.03-.4,1.47-.4,1.79,0,2.31,1.95,2.66,3.34,.16,.52,.44,.76,.91,.76,1.91,0,4.81-1.47,6.24-2.7,.2-.16,.52-.28,.76-.32,.2,0,.44,.2,.56,.4,.04,.08-.12,.36-.28,.52Zm10.18-.91c.28,0,.56,.16,.8,.56-.4,.2-.76,.4-1.11,.52-2.27,.76-4.53,1.51-6.8,2.23-.72,.24-1.59,.44-2.39,.44-1.43,0-2.43-1.19-2.03-2.62,.24-.83,1.11-3.62,2.19-3.62,.4,0,.76,.24,1.03,.64-1.19,1.07-1.63,2.51-1.87,4.02-.08,.48,.16,.6,.44,.6,.95,0,7.99-2.23,9.34-2.66,.12-.04,.28-.08,.4-.08Zm-8.99-4.85c-.16-.44-.04-.76,.48-.76s1.71,.32,1.71,.95c0,.48-.68,1.15-1.15,1.19-.56,.04-1.03-.56-1.03-1.39Zm17.85-3.14c-.24,.12-.44,.32-.68,.36-.87,.16-1.79,.24-2.66,.44-.28,.08-.6,.24-.76,.48-2.23,3.98-4.25,8.03-4.81,12.65-.12,.91-.12,1.83-.04,2.74,0,.52,.28,.99,.48,1.51-.04,.04-.08,.08-.12,.12-1.11-.44-1.43-1.51-1.47-2.66-.08-2.74,.44-5.45,1.43-7.99,.79-2.15,1.79-4.22,2.82-6.24-.91,.2-1.67,.4-2.43,.56-.2,.04-.36,.08-.48,.08-.36,0-.52-.2-.8-.76,.2-.08,.4-.2,.64-.28,1.11-.28,2.23-.56,3.34-.87,.32-.12,.68-.32,.83-.6,.76-1.11,1.39-2.23,2.07-3.34,.16-.28,.28-.52,.56-.52,.08,0,.2,.04,.32,.12,.44,.28,.4,.64,.2,1.03-.52,.91-1.03,1.87-1.51,2.82,.64-.08,1.23-.12,1.79-.2,.12,0,.28-.04,.4-.04,.08,0,.16,0,.2,.04,.24,.12,.44,.36,.68,.56Zm11.53,8.35c-.12,.16-.2,.4-.36,.44-1.51,.48-3.02,.88-4.53,1.31-.48,.08-.99,.16-1.47,.16-1.19,0-1.83-.56-2.03-1.83-.04-.08-.04-.16-.12-.4-1.03,.64-2.03,1.27-2.98,1.87-.56,.32-1.75,.91-2.43,.91-.56,0-1.07-.32-1.51-.8-.6-.68-.52-1.39-.16-2.07,.4-.72,.83-1.43,1.35-2.07,.24-.32,.48-.44,.76-.44,.36,0,.68,.24,.95,.76-1.19,.6-1.63,1.75-2.03,2.9-.16,.48-.08,.72,.24,.72,.12,0,.28,0,.44-.08,.56-.2,1.07-.48,1.59-.76,1.03-.6,1.99-1.23,3.02-1.83,.28-.12,.52-.2,.76-.2,1.11,0,1.19,1.07,1.19,1.91,0,.52,.2,.6,.68,.6,1.87-.44,3.7-.87,5.57-1.31,.16-.04,.32-.12,.48-.12h.08c.2,.04,.36,.2,.52,.32Zm5.76-3.34c.52,0,.83,.32,1.07,.91h-.32c-1.59,0-2.66,1.03-3.78,1.91-1.63,1.23-2.58,2.98-3.38,4.77-.12,.24-.24,.64-.48,.64-.04,0-.12-.04-.2-.08-.32-.12-.68-.6-.64-.87,.48-2.19,.99-4.33,1.51-6.52,1.03,.16,1.31,.56,.99,1.35-.16,.44-.28,.87-.32,1.35,.64-.52,1.19-1.11,1.87-1.55,.68-.48,2.86-1.91,3.66-1.91Zm18.65,3.26c-.12,.2-.24,.52-.44,.6-1.67,.56-3.3,1.19-5.01,1.59-2.23,.52-6.2,1.67-9.23,1.67-.76,0-1.47-.08-2.07-.24-1.43-.36-1.95-1.47-1.79-2.94,.04-.6,.44-.84,.72-1.15,.95-1.19,2.94-2.74,4.53-2.74,.48,0,.88,.28,1.19,.76,.36,.56,.12,1.07-.24,1.47-1.27,1.27-2.62,2.11-4.49,2.11-.4,0-.68,0-.8,.48-.08,.48,0,.83,.44,.95,.8,.24,1.67,.32,2.58,.32,2.7,0,5.65-.87,7.63-1.31,2.07-.52,4.1-1.23,6.16-1.83,.24-.04,.56,.16,.8,.28Zm-16.7,.28c1.59-.28,2.82-1.07,3.94-2.43-1.31,0-3.38,1.19-3.94,2.43Z"/>
  </g>
</svg>