<?xml version="1.0" encoding="UTF-8"?>
<svg id="Layer_2" data-name="Layer 2" xmlns="http://www.w3.org/2000/svg" viewBox="0 0 34.14 24">
  <defs>
    <style>
      .cls-1 {
        fill: #fff;
      }
    </style>
  </defs>
  <g id="pc_design">
    <path class="cls-1" d="M33.43,3.76c-.39-1.48-1.55-2.64-3.02-3.04-2.66-.72-13.34-.72-13.34-.72,0,0-10.68,0-13.34,.72-1.47,.39-2.62,1.56-3.02,3.04-.71,2.68-.71,8.27-.71,8.27,0,0,0,5.59,.71,8.27,.39,1.48,1.55,2.59,3.02,2.99,2.66,.72,13.34,.72,13.34,.72,0,0,10.67,0,13.34-.72,1.47-.39,2.63-1.51,3.02-2.99,.71-2.68,.71-8.27,.71-8.27,0,0,0-5.59-.71-8.27h0ZM12.78,18.01V6.31l10.28,5.85-10.28,5.85h0Z"/>
  </g>
</svg>